<svg width="24" height="24" viewBox="0 0 24 24" fill="none" xmlns="http://www.w3.org/2000/svg">
<g clip-path="url(#clip0)">
<path d="M0 11.5C0 6.07885 0 3.36827 1.68413 1.68413C3.36827 0 6.07885 0 11.5 0H12.5C17.9212 0 20.6317 0 22.3158 1.68413C24 3.36827 24 6.07885 24 11.5V12.5C24 17.9212 24 20.6317 22.3158 22.3158C20.6317 24 17.9212 24 12.5 24H11.5C6.07885 24 3.36827 24 1.68413 22.3158C0 20.6317 0 17.9212 0 12.5L0 11.5Z" fill="white"/>
<path fill-rule="evenodd" clip-rule="evenodd" d="M16.1993 4.7998H13.9833C11.944 4.7998 10.2901 6.43708 10.2901 8.45607V10.6498H8.07422V13.5749H10.2901V19.4249H13.2447V13.5749H15.4606L16.1993 10.6498H13.2447V8.45607C13.2447 8.05242 13.5756 7.72482 13.9833 7.72482H16.1993V4.7998Z" fill="#CCCCCC"/>
</g>
<defs>
<clipPath id="clip0">
<rect width="24" height="24" fill="white"/>
</clipPath>
</defs>
</svg>
