<svg width="15" height="18" viewBox="0 0 15 18" fill="none" xmlns="http://www.w3.org/2000/svg">
<path d="M3.16699 4.83088V7.32V12.2426M3.16699 4.83088V1.125H6.41699V8.53676M3.16699 4.83088L6.41699 8.53676M6.41699 8.53676V15.405C6.41699 15.5871 6.40887 15.7614 6.39402 15.9223M6.41699 8.53676L3.16699 12.2426M3.16699 12.2426V15.405C3.16699 16.2172 3.32859 16.875 3.5281 16.875H6.05588C6.21066 16.875 6.34262 16.4791 6.39402 15.9223M3.16699 12.2426L6.39402 15.9223" stroke="#818285" stroke-linecap="round" stroke-linejoin="round"/>
<path d="M1 1.125L1 3.375L3 3.375L6.11333 3.375L8.64706 3.375L11.4816 3.375L12.7867 3.375C13.457 3.375 14 3.20719 14 3L14 2.53125L14 1.5C14 1.33926 13.6732 1.20223 13.2137 1.14886C13.0809 1.13344 12.937 1.125 12.7867 1.125L11.7059 1.125L6.41667 1.125L1 1.125Z" stroke="#818285" stroke-linecap="round" stroke-linejoin="round"/>
<path d="M11.8333 3.9375V10.125L10.75 11.25L11.8333 12.375H12.375" stroke="#818285" stroke-linecap="round" stroke-linejoin="round"/>
</svg>
