<svg width="16" height="17" viewBox="0 0 16 17" fill="none" xmlns="http://www.w3.org/2000/svg">
<path d="M1.5 3.13921C1.5 2.55591 1.97225 2.08366 2.55556 2.08366V1.08366C1.41997 1.08366 0.5 2.00363 0.5 3.13921H1.5ZM2.55556 2.08366H13.4444V1.08366H2.55556V2.08366ZM13.4444 2.08366C14.0277 2.08366 14.5 2.55591 14.5 3.13921H15.5C15.5 2.00363 14.58 1.08366 13.4444 1.08366V2.08366ZM14.5 3.13921V14.0281H15.5V3.13921H14.5ZM14.5 14.0281C14.5 14.6114 14.0277 15.0837 13.4444 15.0837V16.0837C14.58 16.0837 15.5 15.1637 15.5 14.0281H14.5ZM13.4444 15.0837H2.55556V16.0837H13.4444V15.0837ZM2.55556 15.0837C1.97225 15.0837 1.5 14.6114 1.5 14.0281H0.5C0.5 15.1637 1.41997 16.0837 2.55556 16.0837V15.0837ZM1.5 14.0281V3.13921H0.5V14.0281H1.5ZM10.5 0.416992V3.41699H11.5V0.416992H10.5ZM4.5 0.416992L4.5 3.41699H5.5L5.5 0.416992L4.5 0.416992ZM1 6.75033H15V5.75033H1V6.75033ZM4 10.417H6V9.41699H4V10.417ZM4 11.417H6V10.417H4V11.417Z" fill="#FF502F"/>
</svg>
