<svg width="40" height="40" viewBox="0 0 40 40" fill="none" xmlns="http://www.w3.org/2000/svg">
<rect width="40" height="40" rx="20" fill="#FFC426"/>
<path d="M13.7043 17.9171C13.5972 18.1587 13.5036 18.408 13.4247 18.6643C13.2833 19.1236 13.1888 19.6051 13.1475 20.1038C13.1118 20.5331 13.1171 20.9565 13.16 21.3698C13.4893 24.5449 16.038 27.1378 19.3352 27.4113C21.0117 27.5505 22.5961 27.0663 23.8602 26.1522M13.7043 17.9171C14.1642 16.8805 14.8745 15.9874 15.7528 15.3077M13.7043 17.9171L15.7528 15.3077M13.7043 17.9171L17.9169 23.0762L23.8602 26.1522M23.8602 26.1522C24.8113 25.4644 25.581 24.5333 26.0721 23.4411M23.8602 26.1522L26.0721 23.4411M15.7528 15.3077C17.0444 14.3083 18.6992 13.7703 20.455 13.916C24.1816 14.2252 26.952 17.4969 26.6428 21.2235C26.6071 21.6529 26.5322 22.0694 26.4217 22.4701C26.3294 22.8055 26.212 23.1298 26.0721 23.4411M15.7528 15.3077L21.3891 18.611L26.0721 23.4411M23.3174 14.8196L24.2275 12.1074C24.4856 11.338 25.4855 11.1463 26.01 11.7656L29.7843 16.2229C30.2849 16.814 29.9883 17.725 29.2357 17.9082L26.3491 18.6109L23.3174 14.8196ZM16.8068 26.6912L15.638 29.4226C15.3333 30.1346 14.3858 30.2769 13.8854 29.6858L10.111 25.2285C9.58653 24.6091 9.94043 23.6545 10.7419 23.5267L13.567 23.0762L16.8068 26.6912Z" stroke="white" stroke-width="1.5" stroke-linecap="round" stroke-linejoin="round"/>
</svg>
