<svg width="40" height="40" viewBox="0 0 40 40" fill="none" xmlns="http://www.w3.org/2000/svg">
<rect width="40" height="40" rx="20" fill="#6796E5"/>
<path fill-rule="evenodd" clip-rule="evenodd" d="M16.3522 27.6875C17.1869 27.6875 17.8636 27.0112 17.8636 26.1762C17.8636 25.3411 17.1869 24.6648 16.3522 24.6648C15.5175 24.6648 14.8408 25.3411 14.8408 26.1762C14.8408 27.0112 15.5175 27.6875 16.3522 27.6875Z" stroke="white" stroke-width="1.5" stroke-linecap="round" stroke-linejoin="round"/>
<path fill-rule="evenodd" clip-rule="evenodd" d="M25.4206 27.6875C26.2553 27.6875 26.9319 27.0112 26.9319 26.1762C26.9319 25.3411 26.2553 24.6648 25.4206 24.6648C24.5858 24.6648 23.9092 25.3411 23.9092 26.1762C23.9092 27.0112 24.5858 27.6875 25.4206 27.6875Z" stroke="white" stroke-width="1.5" stroke-linecap="round" stroke-linejoin="round"/>
<path d="M14.5916 14.8409H27.6876L26.4181 21.1812C26.2755 21.8991 25.6386 22.4122 24.9067 22.3978H16.9191C16.1555 22.4046 15.5069 21.8401 15.4077 21.0829L14.2591 12.3774C14.1605 11.6262 13.5207 11.064 12.7628 11.0625H11.0625" stroke="white" stroke-width="1.5" stroke-linecap="round" stroke-linejoin="round"/>
</svg>
