<svg width="17" height="17" viewBox="0 0 17 17" fill="none" xmlns="http://www.w3.org/2000/svg">
<path d="M6.5 1V0.25C6.08579 0.25 5.75 0.585786 5.75 1L6.5 1ZM6.5 6.5V7.25C6.91421 7.25 7.25 6.91421 7.25 6.5H6.5ZM1 6.5V5.75C0.585786 5.75 0.25 6.08579 0.25 6.5H1ZM1 16H0.25C0.25 16.4142 0.585786 16.75 1 16.75L1 16ZM16 16V16.75C16.4142 16.75 16.75 16.4142 16.75 16H16ZM16 1H16.75C16.75 0.585786 16.4142 0.25 16 0.25V1ZM12.5 7.75C12.0858 7.75 11.75 8.08579 11.75 8.5C11.75 8.91421 12.0858 9.25 12.5 9.25V7.75ZM9.25 12.5C9.25 12.0858 8.91421 11.75 8.5 11.75C8.08579 11.75 7.75 12.0858 7.75 12.5H9.25ZM5.75 1V6.5H7.25V1H5.75ZM6.5 5.75H1V7.25H6.5V5.75ZM0.25 6.5V16H1.75V6.5H0.25ZM16 0.25H6.5V1.75H16V0.25ZM16.75 16V8.5H15.25V16H16.75ZM16.75 8.5V1H15.25V8.5H16.75ZM16 7.75H12.5V9.25H16V7.75ZM1 16.75H8.5V15.25H1V16.75ZM8.5 16.75H16V15.25H8.5V16.75ZM8.5 16C9.25 16 9.25 16 9.25 16C9.25 16 9.25 15.9999 9.25 15.9999C9.25 15.9999 9.25 15.9999 9.25 15.9998C9.25 15.9998 9.25 15.9997 9.25 15.9997C9.25 15.9996 9.25 15.9995 9.25 15.9995C9.25 15.9994 9.25 15.9993 9.25 15.9993C9.25 15.9992 9.25 15.9991 9.25 15.999C9.25 15.9989 9.25 15.9988 9.25 15.9987C9.25 15.9986 9.25 15.9984 9.25 15.9983C9.25 15.9982 9.25 15.9981 9.25 15.9979C9.25 15.9978 9.25 15.9976 9.25 15.9975C9.25 15.9973 9.25 15.9972 9.25 15.997C9.25 15.9969 9.25 15.9967 9.25 15.9965C9.25 15.9963 9.25 15.9961 9.25 15.9959C9.25 15.9958 9.25 15.9956 9.25 15.9953C9.25 15.9951 9.25 15.9949 9.25 15.9947C9.25 15.9945 9.25 15.9943 9.25 15.994C9.25 15.9938 9.25 15.9936 9.25 15.9933C9.25 15.9931 9.25 15.9928 9.25 15.9926C9.25 15.9923 9.25 15.992 9.25 15.9918C9.25 15.9915 9.25 15.9912 9.25 15.9909C9.25 15.9906 9.25 15.9903 9.25 15.99C9.25 15.9897 9.25 15.9894 9.25 15.9891C9.25 15.9888 9.25 15.9885 9.25 15.9882C9.25 15.9878 9.25 15.9875 9.25 15.9872C9.25 15.9868 9.25 15.9865 9.25 15.9861C9.25 15.9858 9.25 15.9854 9.25 15.9851C9.25 15.9847 9.25 15.9843 9.25 15.9839C9.25 15.9836 9.25 15.9832 9.25 15.9828C9.25 15.9824 9.25 15.982 9.25 15.9816C9.25 15.9812 9.25 15.9808 9.25 15.9804C9.25 15.9799 9.25 15.9795 9.25 15.9791C9.25 15.9787 9.25 15.9782 9.25 15.9778C9.25 15.9773 9.25 15.9769 9.25 15.9764C9.25 15.976 9.25 15.9755 9.25 15.975C9.25 15.9746 9.25 15.9741 9.25 15.9736C9.25 15.9731 9.25 15.9726 9.25 15.9721C9.25 15.9716 9.25 15.9711 9.25 15.9706C9.25 15.9701 9.25 15.9696 9.25 15.9691C9.25 15.9686 9.25 15.968 9.25 15.9675C9.25 15.967 9.25 15.9664 9.25 15.9659C9.25 15.9653 9.25 15.9648 9.25 15.9642C9.25 15.9637 9.25 15.9631 9.25 15.9625C9.25 15.962 9.25 15.9614 9.25 15.9608C9.25 15.9602 9.25 15.9596 9.25 15.959C9.25 15.9584 9.25 15.9578 9.25 15.9572C9.25 15.9566 9.25 15.956 9.25 15.9554C9.25 15.9547 9.25 15.9541 9.25 15.9535C9.25 15.9528 9.25 15.9522 9.25 15.9516C9.25 15.9509 9.25 15.9503 9.25 15.9496C9.25 15.9489 9.25 15.9483 9.25 15.9476C9.25 15.9469 9.25 15.9462 9.25 15.9456C9.25 15.9449 9.25 15.9442 9.25 15.9435C9.25 15.9428 9.25 15.9421 9.25 15.9414C9.25 15.9407 9.25 15.94 9.25 15.9392C9.25 15.9385 9.25 15.9378 9.25 15.937C9.25 15.9363 9.25 15.9356 9.25 15.9348C9.25 15.9341 9.25 15.9333 9.25 15.9326C9.25 15.9318 9.25 15.931 9.25 15.9303C9.25 15.9295 9.25 15.9287 9.25 15.9279C9.25 15.9272 9.25 15.9264 9.25 15.9256C9.25 15.9248 9.25 15.924 9.25 15.9232C9.25 15.9224 9.25 15.9216 9.25 15.9207C9.25 15.9199 9.25 15.9191 9.25 15.9183C9.25 15.9174 9.25 15.9166 9.25 15.9157C9.25 15.9149 9.25 15.9141 9.25 15.9132C9.25 15.9123 9.25 15.9115 9.25 15.9106C9.25 15.9097 9.25 15.9089 9.25 15.908C9.25 15.9071 9.25 15.9062 9.25 15.9053C9.25 15.9044 9.25 15.9035 9.25 15.9026C9.25 15.9017 9.25 15.9008 9.25 15.8999C9.25 15.899 9.25 15.8981 9.25 15.8972C9.25 15.8962 9.25 15.8953 9.25 15.8944C9.25 15.8934 9.25 15.8925 9.25 15.8915C9.25 15.8906 9.25 15.8896 9.25 15.8887C9.25 15.8877 9.25 15.8867 9.25 15.8858C9.25 15.8848 9.25 15.8838 9.25 15.8828C9.25 15.8818 9.25 15.8808 9.25 15.8798C9.25 15.8788 9.25 15.8778 9.25 15.8768C9.25 15.8758 9.25 15.8748 9.25 15.8738C9.25 15.8728 9.25 15.8717 9.25 15.8707C9.25 15.8697 9.25 15.8686 9.25 15.8676C9.25 15.8666 9.25 15.8655 9.25 15.8644C9.25 15.8634 9.25 15.8623 9.25 15.8613C9.25 15.8602 9.25 15.8591 9.25 15.858C9.25 15.857 9.25 15.8559 9.25 15.8548C9.25 15.8537 9.25 15.8526 9.25 15.8515C9.25 15.8504 9.25 15.8493 9.25 15.8482C9.25 15.8471 9.25 15.846 9.25 15.8448C9.25 15.8437 9.25 15.8426 9.25 15.8415C9.25 15.8403 9.25 15.8392 9.25 15.838C9.25 15.8369 9.25 15.8357 9.25 15.8346C9.25 15.8334 9.25 15.8323 9.25 15.8311C9.25 15.8299 9.25 15.8287 9.25 15.8276C9.25 15.8264 9.25 15.8252 9.25 15.824C9.25 15.8228 9.25 15.8216 9.25 15.8204C9.25 15.8192 9.25 15.818 9.25 15.8168C9.25 15.8156 9.25 15.8144 9.25 15.8131C9.25 15.8119 9.25 15.8107 9.25 15.8095C9.25 15.8082 9.25 15.807 9.25 15.8057C9.25 15.8045 9.25 15.8032 9.25 15.802C9.25 15.8007 9.25 15.7995 9.25 15.7982C9.25 15.7969 9.25 15.7957 9.25 15.7944C9.25 15.7931 9.25 15.7918 9.25 15.7905C9.25 15.7892 9.25 15.7879 9.25 15.7866C9.25 15.7853 9.25 15.784 9.25 15.7827C9.25 15.7814 9.25 15.7801 9.25 15.7788C9.25 15.7774 9.25 15.7761 9.25 15.7748C9.25 15.7735 9.25 15.7721 9.25 15.7708C9.25 15.7694 9.25 15.7681 9.25 15.7667C9.25 15.7654 9.25 15.764 9.25 15.7626C9.25 15.7613 9.25 15.7599 9.25 15.7585C9.25 15.7572 9.25 15.7558 9.25 15.7544C9.25 15.753 9.25 15.7516 9.25 15.7502C9.25 15.7488 9.25 15.7474 9.25 15.746C9.25 15.7446 9.25 15.7432 9.25 15.7418C9.25 15.7404 9.25 15.7389 9.25 15.7375C9.25 15.7361 9.25 15.7346 9.25 15.7332C9.25 15.7318 9.25 15.7303 9.25 15.7289C9.25 15.7274 9.25 15.726 9.25 15.7245C9.25 15.723 9.25 15.7216 9.25 15.7201C9.25 15.7186 9.25 15.7172 9.25 15.7157C9.25 15.7142 9.25 15.7127 9.25 15.7112C9.25 15.7097 9.25 15.7082 9.25 15.7067C9.25 15.7052 9.25 15.7037 9.25 15.7022C9.25 15.7007 9.25 15.6992 9.25 15.6977C9.25 15.6962 9.25 15.6946 9.25 15.6931C9.25 15.6916 9.25 15.69 9.25 15.6885C9.25 15.6869 9.25 15.6854 9.25 15.6838C9.25 15.6823 9.25 15.6807 9.25 15.6792C9.25 15.6776 9.25 15.676 9.25 15.6745C9.25 15.6729 9.25 15.6713 9.25 15.6697C9.25 15.6682 9.25 15.6666 9.25 15.665C9.25 15.6634 9.25 15.6618 9.25 15.6602C9.25 15.6586 9.25 15.657 9.25 15.6554C9.25 15.6538 9.25 15.6521 9.25 15.6505C9.25 15.6489 9.25 15.6473 9.25 15.6456C9.25 15.644 9.25 15.6424 9.25 15.6407C9.25 15.6391 9.25 15.6374 9.25 15.6358C9.25 15.6341 9.25 15.6325 9.25 15.6308C9.25 15.6291 9.25 15.6275 9.25 15.6258C9.25 15.6241 9.25 15.6225 9.25 15.6208C9.25 15.6191 9.25 15.6174 9.25 15.6157C9.25 15.614 9.25 15.6123 9.25 15.6106C9.25 15.6089 9.25 15.6072 9.25 15.6055C9.25 15.6038 9.25 15.6021 9.25 15.6004C9.25 15.5986 9.25 15.5969 9.25 15.5952C9.25 15.5935 9.25 15.5917 9.25 15.59C9.25 15.5883 9.25 15.5865 9.25 15.5848C9.25 15.583 9.25 15.5813 9.25 15.5795C9.25 15.5777 9.25 15.576 9.25 15.5742C9.25 15.5724 9.25 15.5707 9.25 15.5689C9.25 15.5671 9.25 15.5653 9.25 15.5635C9.25 15.5618 9.25 15.56 9.25 15.5582C9.25 15.5564 9.25 15.5546 9.25 15.5528C9.25 15.551 9.25 15.5492 9.25 15.5473C9.25 15.5455 9.25 15.5437 9.25 15.5419C9.25 15.5401 9.25 15.5382 9.25 15.5364C9.25 15.5346 9.25 15.5327 9.25 15.5309C9.25 15.529 9.25 15.5272 9.25 15.5253C9.25 15.5235 9.25 15.5216 9.25 15.5198C9.25 15.5179 9.25 15.516 9.25 15.5142C9.25 15.5123 9.25 15.5104 9.25 15.5085C9.25 15.5067 9.25 15.5048 9.25 15.5029C9.25 15.501 9.25 15.4991 9.25 15.4972C9.25 15.4953 9.25 15.4934 9.25 15.4915C9.25 15.4896 9.25 15.4877 9.25 15.4858C9.25 15.4839 9.25 15.4819 9.25 15.48C9.25 15.4781 9.25 15.4762 9.25 15.4742C9.25 15.4723 9.25 15.4704 9.25 15.4684C9.25 15.4665 9.25 15.4645 9.25 15.4626C9.25 15.4606 9.25 15.4587 9.25 15.4567C9.25 15.4547 9.25 15.4528 9.25 15.4508C9.25 15.4488 9.25 15.4469 9.25 15.4449C9.25 15.4429 9.25 15.4409 9.25 15.4389C9.25 15.437 9.25 15.435 9.25 15.433C9.25 15.431 9.25 15.429 9.25 15.427C9.25 15.425 9.25 15.423 9.25 15.4209C9.25 15.4189 9.25 15.4169 9.25 15.4149C9.25 15.4129 9.25 15.4108 9.25 15.4088C9.25 15.4068 9.25 15.4047 9.25 15.4027C9.25 15.4007 9.25 15.3986 9.25 15.3966C9.25 15.3945 9.25 15.3925 9.25 15.3904C9.25 15.3884 9.25 15.3863 9.25 15.3842C9.25 15.3822 9.25 15.3801 9.25 15.378C9.25 15.376 9.25 15.3739 9.25 15.3718C9.25 15.3697 9.25 15.3676 9.25 15.3655C9.25 15.3635 9.25 15.3614 9.25 15.3593C9.25 15.3572 9.25 15.3551 9.25 15.353C9.25 15.3508 9.25 15.3487 9.25 15.3466C9.25 15.3445 9.25 15.3424 9.25 15.3403C9.25 15.3381 9.25 15.336 9.25 15.3339C9.25 15.3317 9.25 15.3296 9.25 15.3275C9.25 15.3253 9.25 15.3232 9.25 15.321C9.25 15.3189 9.25 15.3167 9.25 15.3146C9.25 15.3124 9.25 15.3103 9.25 15.3081C9.25 15.3059 9.25 15.3038 9.25 15.3016C9.25 15.2994 9.25 15.2972 9.25 15.2951C9.25 15.2929 9.25 15.2907 9.25 15.2885C9.25 15.2863 9.25 15.2841 9.25 15.2819C9.25 15.2797 9.25 15.2775 9.25 15.2753C9.25 15.2731 9.25 15.2709 9.25 15.2687C9.25 15.2665 9.25 15.2643 9.25 15.2621C9.25 15.2598 9.25 15.2576 9.25 15.2554C9.25 15.2531 9.25 15.2509 9.25 15.2487C9.25 15.2464 9.25 15.2442 9.25 15.242C9.25 15.2397 9.25 15.2375 9.25 15.2352C9.25 15.233 9.25 15.2307 9.25 15.2284C9.25 15.2262 9.25 15.2239 9.25 15.2216C9.25 15.2194 9.25 15.2171 9.25 15.2148C9.25 15.2126 9.25 15.2103 9.25 15.208C9.25 15.2057 9.25 15.2034 9.25 15.2011C9.25 15.1988 9.25 15.1965 9.25 15.1942C9.25 15.1919 9.25 15.1896 9.25 15.1873C9.25 15.185 9.25 15.1827 9.25 15.1804C9.25 15.1781 9.25 15.1758 9.25 15.1735C9.25 15.1711 9.25 15.1688 9.25 15.1665C9.25 15.1641 9.25 15.1618 9.25 15.1595C9.25 15.1571 9.25 15.1548 9.25 15.1525C9.25 15.1501 9.25 15.1478 9.25 15.1454C9.25 15.1431 9.25 15.1407 9.25 15.1383C9.25 15.136 9.25 15.1336 9.25 15.1313C9.25 15.1289 9.25 15.1265 9.25 15.1241C9.25 15.1218 9.25 15.1194 9.25 15.117C9.25 15.1146 9.25 15.1122 9.25 15.1099C9.25 15.1075 9.25 15.1051 9.25 15.1027C9.25 15.1003 9.25 15.0979 9.25 15.0955C9.25 15.0931 9.25 15.0907 9.25 15.0883C9.25 15.0858 9.25 15.0834 9.25 15.081C9.25 15.0786 9.25 15.0762 9.25 15.0738C9.25 15.0713 9.25 15.0689 9.25 15.0665C9.25 15.064 9.25 15.0616 9.25 15.0592C9.25 15.0567 9.25 15.0543 9.25 15.0518C9.25 15.0494 9.25 15.0469 9.25 15.0445C9.25 15.042 9.25 15.0396 9.25 15.0371C9.25 15.0347 9.25 15.0322 9.25 15.0297C9.25 15.0273 9.25 15.0248 9.25 15.0223C9.25 15.0198 9.25 15.0174 9.25 15.0149C9.25 15.0124 9.25 15.0099 9.25 15.0074C9.25 15.0049 9.25 15.0024 9.25 15C9.25 14.9975 9.25 14.995 9.25 14.9925C9.25 14.99 9.25 14.9875 9.25 14.9849C9.25 14.9824 9.25 14.9799 9.25 14.9774C9.25 14.9749 9.25 14.9724 9.25 14.9699C9.25 14.9673 9.25 14.9648 9.25 14.9623C9.25 14.9597 9.25 14.9572 9.25 14.9547C9.25 14.9521 9.25 14.9496 9.25 14.9471C9.25 14.9445 9.25 14.942 9.25 14.9394C9.25 14.9369 9.25 14.9343 9.25 14.9318C9.25 14.9292 9.25 14.9267 9.25 14.9241C9.25 14.9215 9.25 14.919 9.25 14.9164C9.25 14.9138 9.25 14.9113 9.25 14.9087C9.25 14.9061 9.25 14.9035 9.25 14.9009C9.25 14.8984 9.25 14.8958 9.25 14.8932C9.25 14.8906 9.25 14.888 9.25 14.8854C9.25 14.8828 9.25 14.8802 9.25 14.8776C9.25 14.875 9.25 14.8724 9.25 14.8698C9.25 14.8672 9.25 14.8646 9.25 14.862C9.25 14.8594 9.25 14.8568 9.25 14.8541C9.25 14.8515 9.25 14.8489 9.25 14.8463C9.25 14.8436 9.25 14.841 9.25 14.8384C9.25 14.8357 9.25 14.8331 9.25 14.8305C9.25 14.8278 9.25 14.8252 9.25 14.8225C9.25 14.8199 9.25 14.8173 9.25 14.8146C9.25 14.812 9.25 14.8093 9.25 14.8066C9.25 14.804 9.25 14.8013 9.25 14.7987C9.25 14.796 9.25 14.7933 9.25 14.7907C9.25 14.788 9.25 14.7853 9.25 14.7826C9.25 14.78 9.25 14.7773 9.25 14.7746C9.25 14.7719 9.25 14.7692 9.25 14.7666C9.25 14.7639 9.25 14.7612 9.25 14.7585C9.25 14.7558 9.25 14.7531 9.25 14.7504C9.25 14.7477 9.25 14.745 9.25 14.7423C9.25 14.7396 9.25 14.7369 9.25 14.7342C9.25 14.7315 9.25 14.7287 9.25 14.726C9.25 14.7233 9.25 14.7206 9.25 14.7179C9.25 14.7151 9.25 14.7124 9.25 14.7097C9.25 14.707 9.25 14.7042 9.25 14.7015C9.25 14.6988 9.25 14.696 9.25 14.6933C9.25 14.6906 9.25 14.6878 9.25 14.6851C9.25 14.6823 9.25 14.6796 9.25 14.6768C9.25 14.6741 9.25 14.6713 9.25 14.6686C9.25 14.6658 9.25 14.663 9.25 14.6603C9.25 14.6575 9.25 14.6547 9.25 14.652C9.25 14.6492 9.25 14.6464 9.25 14.6437C9.25 14.6409 9.25 14.6381 9.25 14.6353C9.25 14.6326 9.25 14.6298 9.25 14.627C9.25 14.6242 9.25 14.6214 9.25 14.6186C9.25 14.6158 9.25 14.6131 9.25 14.6103C9.25 14.6075 9.25 14.6047 9.25 14.6019C9.25 14.5991 9.25 14.5963 9.25 14.5935C9.25 14.5906 9.25 14.5878 9.25 14.585C9.25 14.5822 9.25 14.5794 9.25 14.5766C9.25 14.5738 9.25 14.5709 9.25 14.5681C9.25 14.5653 9.25 14.5625 9.25 14.5596C9.25 14.5568 9.25 14.554 9.25 14.5512C9.25 14.5483 9.25 14.5455 9.25 14.5427C9.25 14.5398 9.25 14.537 9.25 14.5341C9.25 14.5313 9.25 14.5284 9.25 14.5256C9.25 14.5227 9.25 14.5199 9.25 14.517C9.25 14.5142 9.25 14.5113 9.25 14.5085C9.25 14.5056 9.25 14.5028 9.25 14.4999C9.25 14.497 9.25 14.4942 9.25 14.4913C9.25 14.4884 9.25 14.4856 9.25 14.4827C9.25 14.4798 9.25 14.4769 9.25 14.4741C9.25 14.4712 9.25 14.4683 9.25 14.4654C9.25 14.4625 9.25 14.4596 9.25 14.4568C9.25 14.4539 9.25 14.451 9.25 14.4481C9.25 14.4452 9.25 14.4423 9.25 14.4394C9.25 14.4365 9.25 14.4336 9.25 14.4307C9.25 14.4278 9.25 14.4249 9.25 14.422C9.25 14.4191 9.25 14.4162 9.25 14.4133C9.25 14.4103 9.25 14.4074 9.25 14.4045C9.25 14.4016 9.25 14.3987 9.25 14.3958C9.25 14.3928 9.25 14.3899 9.25 14.387C9.25 14.3841 9.25 14.3811 9.25 14.3782C9.25 14.3753 9.25 14.3723 9.25 14.3694C9.25 14.3665 9.25 14.3635 9.25 14.3606C9.25 14.3577 9.25 14.3547 9.25 14.3518C9.25 14.3488 9.25 14.3459 9.25 14.3429C9.25 14.34 9.25 14.337 9.25 14.3341C9.25 14.3311 9.25 14.3282 9.25 14.3252C9.25 14.3222 9.25 14.3193 9.25 14.3163C9.25 14.3134 9.25 14.3104 9.25 14.3074C9.25 14.3045 9.25 14.3015 9.25 14.2985C9.25 14.2956 9.25 14.2926 9.25 14.2896C9.25 14.2866 9.25 14.2836 9.25 14.2807C9.25 14.2777 9.25 14.2747 9.25 14.2717C9.25 14.2687 9.25 14.2658 9.25 14.2628C9.25 14.2598 9.25 14.2568 9.25 14.2538C9.25 14.2508 9.25 14.2478 9.25 14.2448C9.25 14.2418 9.25 14.2388 9.25 14.2358C9.25 14.2328 9.25 14.2298 9.25 14.2268C9.25 14.2238 9.25 14.2208 9.25 14.2178C9.25 14.2148 9.25 14.2118 9.25 14.2088C9.25 14.2057 9.25 14.2027 9.25 14.1997C9.25 14.1967 9.25 14.1937 9.25 14.1906C9.25 14.1876 9.25 14.1846 9.25 14.1816C9.25 14.1786 9.25 14.1755 9.25 14.1725C9.25 14.1695 9.25 14.1664 9.25 14.1634C9.25 14.1604 9.25 14.1573 9.25 14.1543C9.25 14.1513 9.25 14.1482 9.25 14.1452C9.25 14.1421 9.25 14.1391 9.25 14.1361C9.25 14.133 9.25 14.13 9.25 14.1269C9.25 14.1239 9.25 14.1208 9.25 14.1178C9.25 14.1147 9.25 14.1117 9.25 14.1086C9.25 14.1055 9.25 14.1025 9.25 14.0994C9.25 14.0964 9.25 14.0933 9.25 14.0902C9.25 14.0872 9.25 14.0841 9.25 14.0811C9.25 14.078 9.25 14.0749 9.25 14.0718C9.25 14.0688 9.25 14.0657 9.25 14.0626C9.25 14.0596 9.25 14.0565 9.25 14.0534C9.25 14.0503 9.25 14.0472 9.25 14.0442C9.25 14.0411 9.25 14.038 9.25 14.0349C9.25 14.0318 9.25 14.0287 9.25 14.0257C9.25 14.0226 9.25 14.0195 9.25 14.0164C9.25 14.0133 9.25 14.0102 9.25 14.0071C9.25 14.004 9.25 14.0009 9.25 13.9978C9.25 13.9947 9.25 13.9916 9.25 13.9885C9.25 13.9854 9.25 13.9823 9.25 13.9792C9.25 13.9761 9.25 13.973 9.25 13.9699C9.25 13.9668 9.25 13.9637 9.25 13.9605C9.25 13.9574 9.25 13.9543 9.25 13.9512C9.25 13.9481 9.25 13.945 9.25 13.9419C9.25 13.9387 9.25 13.9356 9.25 13.9325C9.25 13.9294 9.25 13.9263 9.25 13.9231C9.25 13.92 9.25 13.9169 9.25 13.9137C9.25 13.9106 9.25 13.9075 9.25 13.9044C9.25 13.9012 9.25 13.8981 9.25 13.895C9.25 13.8918 9.25 13.8887 9.25 13.8856C9.25 13.8824 9.25 13.8793 9.25 13.8761C9.25 13.873 9.25 13.8699 9.25 13.8667C9.25 13.8636 9.25 13.8604 9.25 13.8573C9.25 13.8541 9.25 13.851 9.25 13.8478C9.25 13.8447 9.25 13.8415 9.25 13.8384C9.25 13.8352 9.25 13.8321 9.25 13.8289C9.25 13.8258 9.25 13.8226 9.25 13.8195C9.25 13.8163 9.25 13.8131 9.25 13.81C9.25 13.8068 9.25 13.8037 9.25 13.8005C9.25 13.7973 9.25 13.7942 9.25 13.791C9.25 13.7878 9.25 13.7847 9.25 13.7815C9.25 13.7783 9.25 13.7752 9.25 13.772C9.25 13.7688 9.25 13.7657 9.25 13.7625C9.25 13.7593 9.25 13.7561 9.25 13.753C9.25 13.7498 9.25 13.7466 9.25 13.7434C9.25 13.7402 9.25 13.7371 9.25 13.7339C9.25 13.7307 9.25 13.7275 9.25 13.7243C9.25 13.7212 9.25 13.718 9.25 13.7148C9.25 13.7116 9.25 13.7084 9.25 13.7052C9.25 13.702 9.25 13.6988 9.25 13.6956C9.25 13.6925 9.25 13.6893 9.25 13.6861C9.25 13.6829 9.25 13.6797 9.25 13.6765C9.25 13.6733 9.25 13.6701 9.25 13.6669C9.25 13.6637 9.25 13.6605 9.25 13.6573C9.25 13.6541 9.25 13.6509 9.25 13.6477C9.25 13.6445 9.25 13.6413 9.25 13.6381C9.25 13.6349 9.25 13.6317 9.25 13.6284C9.25 13.6252 9.25 13.622 9.25 13.6188C9.25 13.6156 9.25 13.6124 9.25 13.6092C9.25 13.606 9.25 13.6028 9.25 13.5995C9.25 13.5963 9.25 13.5931 9.25 13.5899C9.25 13.5867 9.25 13.5835 9.25 13.5802C9.25 13.577 9.25 13.5738 9.25 13.5706C9.25 13.5674 9.25 13.5641 9.25 13.5609C9.25 13.5577 9.25 13.5545 9.25 13.5513C9.25 13.548 9.25 13.5448 9.25 13.5416C9.25 13.5384 9.25 13.5351 9.25 13.5319C9.25 13.5287 9.25 13.5254 9.25 13.5222C9.25 13.519 9.25 13.5157 9.25 13.5125C9.25 13.5093 9.25 13.506 9.25 13.5028C9.25 13.4996 9.25 13.4963 9.25 13.4931C9.25 13.4899 9.25 13.4866 9.25 13.4834C9.25 13.4802 9.25 13.4769 9.25 13.4737C9.25 13.4704 9.25 13.4672 9.25 13.464C9.25 13.4607 9.25 13.4575 9.25 13.4542C9.25 13.451 9.25 13.4477 9.25 13.4445C9.25 13.4413 9.25 13.438 9.25 13.4348C9.25 13.4315 9.25 13.4283 9.25 13.425C9.25 13.4218 9.25 13.4185 9.25 13.4153C9.25 13.412 9.25 13.4088 9.25 13.4055C9.25 13.4023 9.25 13.399 9.25 13.3958C9.25 13.3925 9.25 13.3893 9.25 13.386C9.25 13.3827 9.25 13.3795 9.25 13.3762C9.25 13.373 9.25 13.3697 9.25 13.3665C9.25 13.3632 9.25 13.36 9.25 13.3567C9.25 13.3534 9.25 13.3502 9.25 13.3469C9.25 13.3437 9.25 13.3404 9.25 13.3371C9.25 13.3339 9.25 13.3306 9.25 13.3273C9.25 13.3241 9.25 13.3208 9.25 13.3176C9.25 13.3143 9.25 13.311 9.25 13.3078C9.25 13.3045 9.25 13.3012 9.25 13.298C9.25 13.2947 9.25 13.2914 9.25 13.2882C9.25 13.2849 9.25 13.2816 9.25 13.2784C9.25 13.2751 9.25 13.2718 9.25 13.2686C9.25 13.2653 9.25 13.262 9.25 13.2587C9.25 13.2555 9.25 13.2522 9.25 13.2489C9.25 13.2457 9.25 13.2424 9.25 13.2391C9.25 13.2358 9.25 13.2326 9.25 13.2293C9.25 13.226 9.25 13.2227 9.25 13.2195C9.25 13.2162 9.25 13.2129 9.25 13.2096C9.25 13.2064 9.25 13.2031 9.25 13.1998C9.25 13.1965 9.25 13.1932 9.25 13.19C9.25 13.1867 9.25 13.1834 9.25 13.1801C9.25 13.1769 9.25 13.1736 9.25 13.1703C9.25 13.167 9.25 13.1637 9.25 13.1605C9.25 13.1572 9.25 13.1539 9.25 13.1506C9.25 13.1473 9.25 13.144 9.25 13.1408C9.25 13.1375 9.25 13.1342 9.25 13.1309C9.25 13.1276 9.25 13.1244 9.25 13.1211C9.25 13.1178 9.25 13.1145 9.25 13.1112C9.25 13.1079 9.25 13.1046 9.25 13.1014C9.25 13.0981 9.25 13.0948 9.25 13.0915C9.25 13.0882 9.25 13.0849 9.25 13.0816C9.25 13.0784 9.25 13.0751 9.25 13.0718C9.25 13.0685 9.25 13.0652 9.25 13.0619C9.25 13.0586 9.25 13.0554 9.25 13.0521C9.25 13.0488 9.25 13.0455 9.25 13.0422C9.25 13.0389 9.25 13.0356 9.25 13.0323C9.25 13.029 9.25 13.0258 9.25 13.0225C9.25 13.0192 9.25 13.0159 9.25 13.0126C9.25 13.0093 9.25 13.006 9.25 13.0027C9.25 12.9994 9.25 12.9961 9.25 12.9929C9.25 12.9896 9.25 12.9863 9.25 12.983C9.25 12.9797 9.25 12.9764 9.25 12.9731C9.25 12.9698 9.25 12.9665 9.25 12.9632C9.25 12.96 9.25 12.9567 9.25 12.9534C9.25 12.9501 9.25 12.9468 9.25 12.9435C9.25 12.9402 9.25 12.9369 9.25 12.9336C9.25 12.9303 9.25 12.927 9.25 12.9237C9.25 12.9205 9.25 12.9172 9.25 12.9139C9.25 12.9106 9.25 12.9073 9.25 12.904C9.25 12.9007 9.25 12.8974 9.25 12.8941C9.25 12.8908 9.25 12.8875 9.25 12.8842C9.25 12.881 9.25 12.8777 9.25 12.8744C9.25 12.8711 9.25 12.8678 9.25 12.8645C9.25 12.8612 9.25 12.8579 9.25 12.8546C9.25 12.8513 9.25 12.848 9.25 12.8447C9.25 12.8415 9.25 12.8382 9.25 12.8349C9.25 12.8316 9.25 12.8283 9.25 12.825C9.25 12.8217 9.25 12.8184 9.25 12.8151C9.25 12.8118 9.25 12.8085 9.25 12.8052C9.25 12.802 9.25 12.7987 9.25 12.7954C9.25 12.7921 9.25 12.7888 9.25 12.7855C9.25 12.7822 9.25 12.7789 9.25 12.7756C9.25 12.7723 9.25 12.7691 9.25 12.7658C9.25 12.7625 9.25 12.7592 9.25 12.7559C9.25 12.7526 9.25 12.7493 9.25 12.746C9.25 12.7427 9.25 12.7395 9.25 12.7362C9.25 12.7329 9.25 12.7296 9.25 12.7263C9.25 12.723 9.25 12.7197 9.25 12.7164C9.25 12.7131 9.25 12.7099 9.25 12.7066C9.25 12.7033 9.25 12.7 9.25 12.6967C9.25 12.6934 9.25 12.6901 9.25 12.6869C9.25 12.6836 9.25 12.6803 9.25 12.677C9.25 12.6737 9.25 12.6704 9.25 12.6671C9.25 12.6639 9.25 12.6606 9.25 12.6573C9.25 12.654 9.25 12.6507 9.25 12.6474C9.25 12.6442 9.25 12.6409 9.25 12.6376C9.25 12.6343 9.25 12.631 9.25 12.6277C9.25 12.6245 9.25 12.6212 9.25 12.6179C9.25 12.6146 9.25 12.6113 9.25 12.6081C9.25 12.6048 9.25 12.6015 9.25 12.5982C9.25 12.5949 9.25 12.5917 9.25 12.5884C9.25 12.5851 9.25 12.5818 9.25 12.5786C9.25 12.5753 9.25 12.572 9.25 12.5687C9.25 12.5655 9.25 12.5622 9.25 12.5589C9.25 12.5556 9.25 12.5523 9.25 12.5491C9.25 12.5458 9.25 12.5425 9.25 12.5393C9.25 12.536 9.25 12.5327 9.25 12.5294C9.25 12.5262 9.25 12.5229 9.25 12.5196C9.25 12.5163 9.25 12.5131 9.25 12.5098C9.25 12.5065 9.25 12.5033 9.25 12.5H7.75C7.75 12.5033 7.75 12.5065 7.75 12.5098C7.75 12.5131 7.75 12.5163 7.75 12.5196C7.75 12.5229 7.75 12.5262 7.75 12.5294C7.75 12.5327 7.75 12.536 7.75 12.5393C7.75 12.5425 7.75 12.5458 7.75 12.5491C7.75 12.5523 7.75 12.5556 7.75 12.5589C7.75 12.5622 7.75 12.5655 7.75 12.5687C7.75 12.572 7.75 12.5753 7.75 12.5786C7.75 12.5818 7.75 12.5851 7.75 12.5884C7.75 12.5917 7.75 12.5949 7.75 12.5982C7.75 12.6015 7.75 12.6048 7.75 12.6081C7.75 12.6113 7.75 12.6146 7.75 12.6179C7.75 12.6212 7.75 12.6245 7.75 12.6277C7.75 12.631 7.75 12.6343 7.75 12.6376C7.75 12.6409 7.75 12.6442 7.75 12.6474C7.75 12.6507 7.75 12.654 7.75 12.6573C7.75 12.6606 7.75 12.6639 7.75 12.6671C7.75 12.6704 7.75 12.6737 7.75 12.677C7.75 12.6803 7.75 12.6836 7.75 12.6869C7.75 12.6901 7.75 12.6934 7.75 12.6967C7.75 12.7 7.75 12.7033 7.75 12.7066C7.75 12.7099 7.75 12.7131 7.75 12.7164C7.75 12.7197 7.75 12.723 7.75 12.7263C7.75 12.7296 7.75 12.7329 7.75 12.7362C7.75 12.7395 7.75 12.7427 7.75 12.746C7.75 12.7493 7.75 12.7526 7.75 12.7559C7.75 12.7592 7.75 12.7625 7.75 12.7658C7.75 12.7691 7.75 12.7723 7.75 12.7756C7.75 12.7789 7.75 12.7822 7.75 12.7855C7.75 12.7888 7.75 12.7921 7.75 12.7954C7.75 12.7987 7.75 12.802 7.75 12.8052C7.75 12.8085 7.75 12.8118 7.75 12.8151C7.75 12.8184 7.75 12.8217 7.75 12.825C7.75 12.8283 7.75 12.8316 7.75 12.8349C7.75 12.8382 7.75 12.8415 7.75 12.8447C7.75 12.848 7.75 12.8513 7.75 12.8546C7.75 12.8579 7.75 12.8612 7.75 12.8645C7.75 12.8678 7.75 12.8711 7.75 12.8744C7.75 12.8777 7.75 12.881 7.75 12.8842C7.75 12.8875 7.75 12.8908 7.75 12.8941C7.75 12.8974 7.75 12.9007 7.75 12.904C7.75 12.9073 7.75 12.9106 7.75 12.9139C7.75 12.9172 7.75 12.9205 7.75 12.9237C7.75 12.927 7.75 12.9303 7.75 12.9336C7.75 12.9369 7.75 12.9402 7.75 12.9435C7.75 12.9468 7.75 12.9501 7.75 12.9534C7.75 12.9567 7.75 12.96 7.75 12.9632C7.75 12.9665 7.75 12.9698 7.75 12.9731C7.75 12.9764 7.75 12.9797 7.75 12.983C7.75 12.9863 7.75 12.9896 7.75 12.9929C7.75 12.9961 7.75 12.9994 7.75 13.0027C7.75 13.006 7.75 13.0093 7.75 13.0126C7.75 13.0159 7.75 13.0192 7.75 13.0225C7.75 13.0258 7.75 13.029 7.75 13.0323C7.75 13.0356 7.75 13.0389 7.75 13.0422C7.75 13.0455 7.75 13.0488 7.75 13.0521C7.75 13.0554 7.75 13.0586 7.75 13.0619C7.75 13.0652 7.75 13.0685 7.75 13.0718C7.75 13.0751 7.75 13.0784 7.75 13.0816C7.75 13.0849 7.75 13.0882 7.75 13.0915C7.75 13.0948 7.75 13.0981 7.75 13.1014C7.75 13.1046 7.75 13.1079 7.75 13.1112C7.75 13.1145 7.75 13.1178 7.75 13.1211C7.75 13.1244 7.75 13.1276 7.75 13.1309C7.75 13.1342 7.75 13.1375 7.75 13.1408C7.75 13.144 7.75 13.1473 7.75 13.1506C7.75 13.1539 7.75 13.1572 7.75 13.1605C7.75 13.1637 7.75 13.167 7.75 13.1703C7.75 13.1736 7.75 13.1769 7.75 13.1801C7.75 13.1834 7.75 13.1867 7.75 13.19C7.75 13.1932 7.75 13.1965 7.75 13.1998C7.75 13.2031 7.75 13.2064 7.75 13.2096C7.75 13.2129 7.75 13.2162 7.75 13.2195C7.75 13.2227 7.75 13.226 7.75 13.2293C7.75 13.2326 7.75 13.2358 7.75 13.2391C7.75 13.2424 7.75 13.2457 7.75 13.2489C7.75 13.2522 7.75 13.2555 7.75 13.2587C7.75 13.262 7.75 13.2653 7.75 13.2686C7.75 13.2718 7.75 13.2751 7.75 13.2784C7.75 13.2816 7.75 13.2849 7.75 13.2882C7.75 13.2914 7.75 13.2947 7.75 13.298C7.75 13.3012 7.75 13.3045 7.75 13.3078C7.75 13.311 7.75 13.3143 7.75 13.3176C7.75 13.3208 7.75 13.3241 7.75 13.3273C7.75 13.3306 7.75 13.3339 7.75 13.3371C7.75 13.3404 7.75 13.3437 7.75 13.3469C7.75 13.3502 7.75 13.3534 7.75 13.3567C7.75 13.36 7.75 13.3632 7.75 13.3665C7.75 13.3697 7.75 13.373 7.75 13.3762C7.75 13.3795 7.75 13.3827 7.75 13.386C7.75 13.3893 7.75 13.3925 7.75 13.3958C7.75 13.399 7.75 13.4023 7.75 13.4055C7.75 13.4088 7.75 13.412 7.75 13.4153C7.75 13.4185 7.75 13.4218 7.75 13.425C7.75 13.4283 7.75 13.4315 7.75 13.4348C7.75 13.438 7.75 13.4413 7.75 13.4445C7.75 13.4477 7.75 13.451 7.75 13.4542C7.75 13.4575 7.75 13.4607 7.75 13.464C7.75 13.4672 7.75 13.4704 7.75 13.4737C7.75 13.4769 7.75 13.4802 7.75 13.4834C7.75 13.4866 7.75 13.4899 7.75 13.4931C7.75 13.4963 7.75 13.4996 7.75 13.5028C7.75 13.506 7.75 13.5093 7.75 13.5125C7.75 13.5157 7.75 13.519 7.75 13.5222C7.75 13.5254 7.75 13.5287 7.75 13.5319C7.75 13.5351 7.75 13.5384 7.75 13.5416C7.75 13.5448 7.75 13.548 7.75 13.5513C7.75 13.5545 7.75 13.5577 7.75 13.5609C7.75 13.5641 7.75 13.5674 7.75 13.5706C7.75 13.5738 7.75 13.577 7.75 13.5802C7.75 13.5835 7.75 13.5867 7.75 13.5899C7.75 13.5931 7.75 13.5963 7.75 13.5995C7.75 13.6028 7.75 13.606 7.75 13.6092C7.75 13.6124 7.75 13.6156 7.75 13.6188C7.75 13.622 7.75 13.6252 7.75 13.6284C7.75 13.6317 7.75 13.6349 7.75 13.6381C7.75 13.6413 7.75 13.6445 7.75 13.6477C7.75 13.6509 7.75 13.6541 7.75 13.6573C7.75 13.6605 7.75 13.6637 7.75 13.6669C7.75 13.6701 7.75 13.6733 7.75 13.6765C7.75 13.6797 7.75 13.6829 7.75 13.6861C7.75 13.6893 7.75 13.6925 7.75 13.6956C7.75 13.6988 7.75 13.702 7.75 13.7052C7.75 13.7084 7.75 13.7116 7.75 13.7148C7.75 13.718 7.75 13.7212 7.75 13.7243C7.75 13.7275 7.75 13.7307 7.75 13.7339C7.75 13.7371 7.75 13.7402 7.75 13.7434C7.75 13.7466 7.75 13.7498 7.75 13.753C7.75 13.7561 7.75 13.7593 7.75 13.7625C7.75 13.7657 7.75 13.7688 7.75 13.772C7.75 13.7752 7.75 13.7783 7.75 13.7815C7.75 13.7847 7.75 13.7878 7.75 13.791C7.75 13.7942 7.75 13.7973 7.75 13.8005C7.75 13.8037 7.75 13.8068 7.75 13.81C7.75 13.8131 7.75 13.8163 7.75 13.8195C7.75 13.8226 7.75 13.8258 7.75 13.8289C7.75 13.8321 7.75 13.8352 7.75 13.8384C7.75 13.8415 7.75 13.8447 7.75 13.8478C7.75 13.851 7.75 13.8541 7.75 13.8573C7.75 13.8604 7.75 13.8636 7.75 13.8667C7.75 13.8699 7.75 13.873 7.75 13.8761C7.75 13.8793 7.75 13.8824 7.75 13.8856C7.75 13.8887 7.75 13.8918 7.75 13.895C7.75 13.8981 7.75 13.9012 7.75 13.9044C7.75 13.9075 7.75 13.9106 7.75 13.9137C7.75 13.9169 7.75 13.92 7.75 13.9231C7.75 13.9263 7.75 13.9294 7.75 13.9325C7.75 13.9356 7.75 13.9387 7.75 13.9419C7.75 13.945 7.75 13.9481 7.75 13.9512C7.75 13.9543 7.75 13.9574 7.75 13.9605C7.75 13.9637 7.75 13.9668 7.75 13.9699C7.75 13.973 7.75 13.9761 7.75 13.9792C7.75 13.9823 7.75 13.9854 7.75 13.9885C7.75 13.9916 7.75 13.9947 7.75 13.9978C7.75 14.0009 7.75 14.004 7.75 14.0071C7.75 14.0102 7.75 14.0133 7.75 14.0164C7.75 14.0195 7.75 14.0226 7.75 14.0257C7.75 14.0287 7.75 14.0318 7.75 14.0349C7.75 14.038 7.75 14.0411 7.75 14.0442C7.75 14.0472 7.75 14.0503 7.75 14.0534C7.75 14.0565 7.75 14.0596 7.75 14.0626C7.75 14.0657 7.75 14.0688 7.75 14.0718C7.75 14.0749 7.75 14.078 7.75 14.0811C7.75 14.0841 7.75 14.0872 7.75 14.0902C7.75 14.0933 7.75 14.0964 7.75 14.0994C7.75 14.1025 7.75 14.1055 7.75 14.1086C7.75 14.1117 7.75 14.1147 7.75 14.1178C7.75 14.1208 7.75 14.1239 7.75 14.1269C7.75 14.13 7.75 14.133 7.75 14.1361C7.75 14.1391 7.75 14.1421 7.75 14.1452C7.75 14.1482 7.75 14.1513 7.75 14.1543C7.75 14.1573 7.75 14.1604 7.75 14.1634C7.75 14.1664 7.75 14.1695 7.75 14.1725C7.75 14.1755 7.75 14.1786 7.75 14.1816C7.75 14.1846 7.75 14.1876 7.75 14.1906C7.75 14.1937 7.75 14.1967 7.75 14.1997C7.75 14.2027 7.75 14.2057 7.75 14.2088C7.75 14.2118 7.75 14.2148 7.75 14.2178C7.75 14.2208 7.75 14.2238 7.75 14.2268C7.75 14.2298 7.75 14.2328 7.75 14.2358C7.75 14.2388 7.75 14.2418 7.75 14.2448C7.75 14.2478 7.75 14.2508 7.75 14.2538C7.75 14.2568 7.75 14.2598 7.75 14.2628C7.75 14.2658 7.75 14.2687 7.75 14.2717C7.75 14.2747 7.75 14.2777 7.75 14.2807C7.75 14.2836 7.75 14.2866 7.75 14.2896C7.75 14.2926 7.75 14.2956 7.75 14.2985C7.75 14.3015 7.75 14.3045 7.75 14.3074C7.75 14.3104 7.75 14.3134 7.75 14.3163C7.75 14.3193 7.75 14.3222 7.75 14.3252C7.75 14.3282 7.75 14.3311 7.75 14.3341C7.75 14.337 7.75 14.34 7.75 14.3429C7.75 14.3459 7.75 14.3488 7.75 14.3518C7.75 14.3547 7.75 14.3577 7.75 14.3606C7.75 14.3635 7.75 14.3665 7.75 14.3694C7.75 14.3723 7.75 14.3753 7.75 14.3782C7.75 14.3811 7.75 14.3841 7.75 14.387C7.75 14.3899 7.75 14.3928 7.75 14.3958C7.75 14.3987 7.75 14.4016 7.75 14.4045C7.75 14.4074 7.75 14.4103 7.75 14.4133C7.75 14.4162 7.75 14.4191 7.75 14.422C7.75 14.4249 7.75 14.4278 7.75 14.4307C7.75 14.4336 7.75 14.4365 7.75 14.4394C7.75 14.4423 7.75 14.4452 7.75 14.4481C7.75 14.451 7.75 14.4539 7.75 14.4568C7.75 14.4596 7.75 14.4625 7.75 14.4654C7.75 14.4683 7.75 14.4712 7.75 14.4741C7.75 14.4769 7.75 14.4798 7.75 14.4827C7.75 14.4856 7.75 14.4884 7.75 14.4913C7.75 14.4942 7.75 14.497 7.75 14.4999C7.75 14.5028 7.75 14.5056 7.75 14.5085C7.75 14.5113 7.75 14.5142 7.75 14.517C7.75 14.5199 7.75 14.5227 7.75 14.5256C7.75 14.5284 7.75 14.5313 7.75 14.5341C7.75 14.537 7.75 14.5398 7.75 14.5427C7.75 14.5455 7.75 14.5483 7.75 14.5512C7.75 14.554 7.75 14.5568 7.75 14.5596C7.75 14.5625 7.75 14.5653 7.75 14.5681C7.75 14.5709 7.75 14.5738 7.75 14.5766C7.75 14.5794 7.75 14.5822 7.75 14.585C7.75 14.5878 7.75 14.5906 7.75 14.5935C7.75 14.5963 7.75 14.5991 7.75 14.6019C7.75 14.6047 7.75 14.6075 7.75 14.6103C7.75 14.6131 7.75 14.6158 7.75 14.6186C7.75 14.6214 7.75 14.6242 7.75 14.627C7.75 14.6298 7.75 14.6326 7.75 14.6353C7.75 14.6381 7.75 14.6409 7.75 14.6437C7.75 14.6464 7.75 14.6492 7.75 14.652C7.75 14.6547 7.75 14.6575 7.75 14.6603C7.75 14.663 7.75 14.6658 7.75 14.6686C7.75 14.6713 7.75 14.6741 7.75 14.6768C7.75 14.6796 7.75 14.6823 7.75 14.6851C7.75 14.6878 7.75 14.6906 7.75 14.6933C7.75 14.696 7.75 14.6988 7.75 14.7015C7.75 14.7042 7.75 14.707 7.75 14.7097C7.75 14.7124 7.75 14.7151 7.75 14.7179C7.75 14.7206 7.75 14.7233 7.75 14.726C7.75 14.7287 7.75 14.7315 7.75 14.7342C7.75 14.7369 7.75 14.7396 7.75 14.7423C7.75 14.745 7.75 14.7477 7.75 14.7504C7.75 14.7531 7.75 14.7558 7.75 14.7585C7.75 14.7612 7.75 14.7639 7.75 14.7666C7.75 14.7692 7.75 14.7719 7.75 14.7746C7.75 14.7773 7.75 14.78 7.75 14.7826C7.75 14.7853 7.75 14.788 7.75 14.7907C7.75 14.7933 7.75 14.796 7.75 14.7987C7.75 14.8013 7.75 14.804 7.75 14.8066C7.75 14.8093 7.75 14.812 7.75 14.8146C7.75 14.8173 7.75 14.8199 7.75 14.8225C7.75 14.8252 7.75 14.8278 7.75 14.8305C7.75 14.8331 7.75 14.8357 7.75 14.8384C7.75 14.841 7.75 14.8436 7.75 14.8463C7.75 14.8489 7.75 14.8515 7.75 14.8541C7.75 14.8568 7.75 14.8594 7.75 14.862C7.75 14.8646 7.75 14.8672 7.75 14.8698C7.75 14.8724 7.75 14.875 7.75 14.8776C7.75 14.8802 7.75 14.8828 7.75 14.8854C7.75 14.888 7.75 14.8906 7.75 14.8932C7.75 14.8958 7.75 14.8984 7.75 14.9009C7.75 14.9035 7.75 14.9061 7.75 14.9087C7.75 14.9113 7.75 14.9138 7.75 14.9164C7.75 14.919 7.75 14.9215 7.75 14.9241C7.75 14.9267 7.75 14.9292 7.75 14.9318C7.75 14.9343 7.75 14.9369 7.75 14.9394C7.75 14.942 7.75 14.9445 7.75 14.9471C7.75 14.9496 7.75 14.9521 7.75 14.9547C7.75 14.9572 7.75 14.9597 7.75 14.9623C7.75 14.9648 7.75 14.9673 7.75 14.9699C7.75 14.9724 7.75 14.9749 7.75 14.9774C7.75 14.9799 7.75 14.9824 7.75 14.9849C7.75 14.9875 7.75 14.99 7.75 14.9925C7.75 14.995 7.75 14.9975 7.75 15C7.75 15.0024 7.75 15.0049 7.75 15.0074C7.75 15.0099 7.75 15.0124 7.75 15.0149C7.75 15.0174 7.75 15.0198 7.75 15.0223C7.75 15.0248 7.75 15.0273 7.75 15.0297C7.75 15.0322 7.75 15.0347 7.75 15.0371C7.75 15.0396 7.75 15.042 7.75 15.0445C7.75 15.0469 7.75 15.0494 7.75 15.0518C7.75 15.0543 7.75 15.0567 7.75 15.0592C7.75 15.0616 7.75 15.064 7.75 15.0665C7.75 15.0689 7.75 15.0713 7.75 15.0738C7.75 15.0762 7.75 15.0786 7.75 15.081C7.75 15.0834 7.75 15.0858 7.75 15.0883C7.75 15.0907 7.75 15.0931 7.75 15.0955C7.75 15.0979 7.75 15.1003 7.75 15.1027C7.75 15.1051 7.75 15.1075 7.75 15.1099C7.75 15.1122 7.75 15.1146 7.75 15.117C7.75 15.1194 7.75 15.1218 7.75 15.1241C7.75 15.1265 7.75 15.1289 7.75 15.1313C7.75 15.1336 7.75 15.136 7.75 15.1383C7.75 15.1407 7.75 15.1431 7.75 15.1454C7.75 15.1478 7.75 15.1501 7.75 15.1525C7.75 15.1548 7.75 15.1571 7.75 15.1595C7.75 15.1618 7.75 15.1641 7.75 15.1665C7.75 15.1688 7.75 15.1711 7.75 15.1735C7.75 15.1758 7.75 15.1781 7.75 15.1804C7.75 15.1827 7.75 15.185 7.75 15.1873C7.75 15.1896 7.75 15.1919 7.75 15.1942C7.75 15.1965 7.75 15.1988 7.75 15.2011C7.75 15.2034 7.75 15.2057 7.75 15.208C7.75 15.2103 7.75 15.2126 7.75 15.2148C7.75 15.2171 7.75 15.2194 7.75 15.2216C7.75 15.2239 7.75 15.2262 7.75 15.2284C7.75 15.2307 7.75 15.233 7.75 15.2352C7.75 15.2375 7.75 15.2397 7.75 15.242C7.75 15.2442 7.75 15.2464 7.75 15.2487C7.75 15.2509 7.75 15.2531 7.75 15.2554C7.75 15.2576 7.75 15.2598 7.75 15.2621C7.75 15.2643 7.75 15.2665 7.75 15.2687C7.75 15.2709 7.75 15.2731 7.75 15.2753C7.75 15.2775 7.75 15.2797 7.75 15.2819C7.75 15.2841 7.75 15.2863 7.75 15.2885C7.75 15.2907 7.75 15.2929 7.75 15.2951C7.75 15.2972 7.75 15.2994 7.75 15.3016C7.75 15.3038 7.75 15.3059 7.75 15.3081C7.75 15.3103 7.75 15.3124 7.75 15.3146C7.75 15.3167 7.75 15.3189 7.75 15.321C7.75 15.3232 7.75 15.3253 7.75 15.3275C7.75 15.3296 7.75 15.3317 7.75 15.3339C7.75 15.336 7.75 15.3381 7.75 15.3403C7.75 15.3424 7.75 15.3445 7.75 15.3466C7.75 15.3487 7.75 15.3508 7.75 15.353C7.75 15.3551 7.75 15.3572 7.75 15.3593C7.75 15.3614 7.75 15.3635 7.75 15.3655C7.75 15.3676 7.75 15.3697 7.75 15.3718C7.75 15.3739 7.75 15.376 7.75 15.378C7.75 15.3801 7.75 15.3822 7.75 15.3842C7.75 15.3863 7.75 15.3884 7.75 15.3904C7.75 15.3925 7.75 15.3945 7.75 15.3966C7.75 15.3986 7.75 15.4007 7.75 15.4027C7.75 15.4047 7.75 15.4068 7.75 15.4088C7.75 15.4108 7.75 15.4129 7.75 15.4149C7.75 15.4169 7.75 15.4189 7.75 15.4209C7.75 15.423 7.75 15.425 7.75 15.427C7.75 15.429 7.75 15.431 7.75 15.433C7.75 15.435 7.75 15.437 7.75 15.4389C7.75 15.4409 7.75 15.4429 7.75 15.4449C7.75 15.4469 7.75 15.4488 7.75 15.4508C7.75 15.4528 7.75 15.4547 7.75 15.4567C7.75 15.4587 7.75 15.4606 7.75 15.4626C7.75 15.4645 7.75 15.4665 7.75 15.4684C7.75 15.4704 7.75 15.4723 7.75 15.4742C7.75 15.4762 7.75 15.4781 7.75 15.48C7.75 15.4819 7.75 15.4839 7.75 15.4858C7.75 15.4877 7.75 15.4896 7.75 15.4915C7.75 15.4934 7.75 15.4953 7.75 15.4972C7.75 15.4991 7.75 15.501 7.75 15.5029C7.75 15.5048 7.75 15.5067 7.75 15.5085C7.75 15.5104 7.75 15.5123 7.75 15.5142C7.75 15.516 7.75 15.5179 7.75 15.5198C7.75 15.5216 7.75 15.5235 7.75 15.5253C7.75 15.5272 7.75 15.529 7.75 15.5309C7.75 15.5327 7.75 15.5346 7.75 15.5364C7.75 15.5382 7.75 15.5401 7.75 15.5419C7.75 15.5437 7.75 15.5455 7.75 15.5473C7.75 15.5492 7.75 15.551 7.75 15.5528C7.75 15.5546 7.75 15.5564 7.75 15.5582C7.75 15.56 7.75 15.5618 7.75 15.5635C7.75 15.5653 7.75 15.5671 7.75 15.5689C7.75 15.5707 7.75 15.5724 7.75 15.5742C7.75 15.576 7.75 15.5777 7.75 15.5795C7.75 15.5813 7.75 15.583 7.75 15.5848C7.75 15.5865 7.75 15.5883 7.75 15.59C7.75 15.5917 7.75 15.5935 7.75 15.5952C7.75 15.5969 7.75 15.5986 7.75 15.6004C7.75 15.6021 7.75 15.6038 7.75 15.6055C7.75 15.6072 7.75 15.6089 7.75 15.6106C7.75 15.6123 7.75 15.614 7.75 15.6157C7.75 15.6174 7.75 15.6191 7.75 15.6208C7.75 15.6225 7.75 15.6241 7.75 15.6258C7.75 15.6275 7.75 15.6291 7.75 15.6308C7.75 15.6325 7.75 15.6341 7.75 15.6358C7.75 15.6374 7.75 15.6391 7.75 15.6407C7.75 15.6424 7.75 15.644 7.75 15.6456C7.75 15.6473 7.75 15.6489 7.75 15.6505C7.75 15.6521 7.75 15.6538 7.75 15.6554C7.75 15.657 7.75 15.6586 7.75 15.6602C7.75 15.6618 7.75 15.6634 7.75 15.665C7.75 15.6666 7.75 15.6682 7.75 15.6697C7.75 15.6713 7.75 15.6729 7.75 15.6745C7.75 15.676 7.75 15.6776 7.75 15.6792C7.75 15.6807 7.75 15.6823 7.75 15.6838C7.75 15.6854 7.75 15.6869 7.75 15.6885C7.75 15.69 7.75 15.6916 7.75 15.6931C7.75 15.6946 7.75 15.6962 7.75 15.6977C7.75 15.6992 7.75 15.7007 7.75 15.7022C7.75 15.7037 7.75 15.7052 7.75 15.7067C7.75 15.7082 7.75 15.7097 7.75 15.7112C7.75 15.7127 7.75 15.7142 7.75 15.7157C7.75 15.7172 7.75 15.7186 7.75 15.7201C7.75 15.7216 7.75 15.723 7.75 15.7245C7.75 15.726 7.75 15.7274 7.75 15.7289C7.75 15.7303 7.75 15.7318 7.75 15.7332C7.75 15.7346 7.75 15.7361 7.75 15.7375C7.75 15.7389 7.75 15.7404 7.75 15.7418C7.75 15.7432 7.75 15.7446 7.75 15.746C7.75 15.7474 7.75 15.7488 7.75 15.7502C7.75 15.7516 7.75 15.753 7.75 15.7544C7.75 15.7558 7.75 15.7572 7.75 15.7585C7.75 15.7599 7.75 15.7613 7.75 15.7626C7.75 15.764 7.75 15.7654 7.75 15.7667C7.75 15.7681 7.75 15.7694 7.75 15.7708C7.75 15.7721 7.75 15.7735 7.75 15.7748C7.75 15.7761 7.75 15.7774 7.75 15.7788C7.75 15.7801 7.75 15.7814 7.75 15.7827C7.75 15.784 7.75 15.7853 7.75 15.7866C7.75 15.7879 7.75 15.7892 7.75 15.7905C7.75 15.7918 7.75 15.7931 7.75 15.7944C7.75 15.7957 7.75 15.7969 7.75 15.7982C7.75 15.7995 7.75 15.8007 7.75 15.802C7.75 15.8032 7.75 15.8045 7.75 15.8057C7.75 15.807 7.75 15.8082 7.75 15.8095C7.75 15.8107 7.75 15.8119 7.75 15.8131C7.75 15.8144 7.75 15.8156 7.75 15.8168C7.75 15.818 7.75 15.8192 7.75 15.8204C7.75 15.8216 7.75 15.8228 7.75 15.824C7.75 15.8252 7.75 15.8264 7.75 15.8276C7.75 15.8287 7.75 15.8299 7.75 15.8311C7.75 15.8323 7.75 15.8334 7.75 15.8346C7.75 15.8357 7.75 15.8369 7.75 15.838C7.75 15.8392 7.75 15.8403 7.75 15.8415C7.75 15.8426 7.75 15.8437 7.75 15.8448C7.75 15.846 7.75 15.8471 7.75 15.8482C7.75 15.8493 7.75 15.8504 7.75 15.8515C7.75 15.8526 7.75 15.8537 7.75 15.8548C7.75 15.8559 7.75 15.857 7.75 15.858C7.75 15.8591 7.75 15.8602 7.75 15.8613C7.75 15.8623 7.75 15.8634 7.75 15.8644C7.75 15.8655 7.75 15.8666 7.75 15.8676C7.75 15.8686 7.75 15.8697 7.75 15.8707C7.75 15.8717 7.75 15.8728 7.75 15.8738C7.75 15.8748 7.75 15.8758 7.75 15.8768C7.75 15.8778 7.75 15.8788 7.75 15.8798C7.75 15.8808 7.75 15.8818 7.75 15.8828C7.75 15.8838 7.75 15.8848 7.75 15.8858C7.75 15.8867 7.75 15.8877 7.75 15.8887C7.75 15.8896 7.75 15.8906 7.75 15.8915C7.75 15.8925 7.75 15.8934 7.75 15.8944C7.75 15.8953 7.75 15.8962 7.75 15.8972C7.75 15.8981 7.75 15.899 7.75 15.8999C7.75 15.9008 7.75 15.9017 7.75 15.9026C7.75 15.9035 7.75 15.9044 7.75 15.9053C7.75 15.9062 7.75 15.9071 7.75 15.908C7.75 15.9089 7.75 15.9097 7.75 15.9106C7.75 15.9115 7.75 15.9123 7.75 15.9132C7.75 15.9141 7.75 15.9149 7.75 15.9157C7.75 15.9166 7.75 15.9174 7.75 15.9183C7.75 15.9191 7.75 15.9199 7.75 15.9207C7.75 15.9216 7.75 15.9224 7.75 15.9232C7.75 15.924 7.75 15.9248 7.75 15.9256C7.75 15.9264 7.75 15.9272 7.75 15.9279C7.75 15.9287 7.75 15.9295 7.75 15.9303C7.75 15.931 7.75 15.9318 7.75 15.9326C7.75 15.9333 7.75 15.9341 7.75 15.9348C7.75 15.9356 7.75 15.9363 7.75 15.937C7.75 15.9378 7.75 15.9385 7.75 15.9392C7.75 15.94 7.75 15.9407 7.75 15.9414C7.75 15.9421 7.75 15.9428 7.75 15.9435C7.75 15.9442 7.75 15.9449 7.75 15.9456C7.75 15.9462 7.75 15.9469 7.75 15.9476C7.75 15.9483 7.75 15.9489 7.75 15.9496C7.75 15.9503 7.75 15.9509 7.75 15.9516C7.75 15.9522 7.75 15.9528 7.75 15.9535C7.75 15.9541 7.75 15.9547 7.75 15.9554C7.75 15.956 7.75 15.9566 7.75 15.9572C7.75 15.9578 7.75 15.9584 7.75 15.959C7.75 15.9596 7.75 15.9602 7.75 15.9608C7.75 15.9614 7.75 15.962 7.75 15.9625C7.75 15.9631 7.75 15.9637 7.75 15.9642C7.75 15.9648 7.75 15.9653 7.75 15.9659C7.75 15.9664 7.75 15.967 7.75 15.9675C7.75 15.968 7.75 15.9686 7.75 15.9691C7.75 15.9696 7.75 15.9701 7.75 15.9706C7.75 15.9711 7.75 15.9716 7.75 15.9721C7.75 15.9726 7.75 15.9731 7.75 15.9736C7.75 15.9741 7.75 15.9746 7.75 15.975C7.75 15.9755 7.75 15.976 7.75 15.9764C7.75 15.9769 7.75 15.9773 7.75 15.9778C7.75 15.9782 7.75 15.9787 7.75 15.9791C7.75 15.9795 7.75 15.9799 7.75 15.9804C7.75 15.9808 7.75 15.9812 7.75 15.9816C7.75 15.982 7.75 15.9824 7.75 15.9828C7.75 15.9832 7.75 15.9836 7.75 15.9839C7.75 15.9843 7.75 15.9847 7.75 15.9851C7.75 15.9854 7.75 15.9858 7.75 15.9861C7.75 15.9865 7.75 15.9868 7.75 15.9872C7.75 15.9875 7.75 15.9878 7.75 15.9882C7.75 15.9885 7.75 15.9888 7.75 15.9891C7.75 15.9894 7.75 15.9897 7.75 15.99C7.75 15.9903 7.75 15.9906 7.75 15.9909C7.75 15.9912 7.75 15.9915 7.75 15.9918C7.75 15.992 7.75 15.9923 7.75 15.9926C7.75 15.9928 7.75 15.9931 7.75 15.9933C7.75 15.9936 7.75 15.9938 7.75 15.994C7.75 15.9943 7.75 15.9945 7.75 15.9947C7.75 15.9949 7.75 15.9951 7.75 15.9953C7.75 15.9956 7.75 15.9958 7.75 15.9959C7.75 15.9961 7.75 15.9963 7.75 15.9965C7.75 15.9967 7.75 15.9969 7.75 15.997C7.75 15.9972 7.75 15.9973 7.75 15.9975C7.75 15.9976 7.75 15.9978 7.75 15.9979C7.75 15.9981 7.75 15.9982 7.75 15.9983C7.75 15.9984 7.75 15.9986 7.75 15.9987C7.75 15.9988 7.75 15.9989 7.75 15.999C7.75 15.9991 7.75 15.9992 7.75 15.9993C7.75 15.9993 7.75 15.9994 7.75 15.9995C7.75 15.9995 7.75 15.9996 7.75 15.9997C7.75 15.9997 7.75 15.9998 7.75 15.9998C7.75 15.9999 7.75 15.9999 7.75 15.9999C7.75 15.9999 7.75 16 7.75 16C7.75 16 7.75 16 8.5 16Z" fill="#818285"/>
</svg>
