<svg width="24" height="24" viewBox="0 0 24 24" fill="none" xmlns="http://www.w3.org/2000/svg">
<rect width="24" height="24" rx="12" fill="#FFC426"/>
<path d="M7.46649 9.5003C7.38934 9.6742 7.32198 9.85373 7.26516 10.0382C7.16332 10.369 7.09533 10.7156 7.06554 11.0747C7.0399 11.3838 7.04368 11.6886 7.07455 11.9862C7.31165 14.2723 9.14671 16.1391 11.5207 16.3361C12.7278 16.4363 13.8686 16.0877 14.7787 15.4296M7.46649 9.5003C7.7976 8.75389 8.30903 8.11087 8.94139 7.62152M7.46649 9.5003L8.94139 7.62152M7.46649 9.5003L10.4995 13.2148L14.7787 15.4296M14.7787 15.4296C15.4635 14.9343 16.0177 14.2639 16.3713 13.4775M14.7787 15.4296L16.3713 13.4775M8.94139 7.62152C9.87132 6.90191 11.0628 6.51459 12.3269 6.61949C15.0101 6.8421 17.0048 9.19773 16.7822 11.8809C16.7565 12.19 16.7025 12.4899 16.623 12.7784C16.5565 13.0199 16.472 13.2534 16.3713 13.4775M8.94139 7.62152L12.9995 9.99988L16.3713 13.4775M14.3879 7.27008L15.0432 5.31729C15.229 4.76331 15.9489 4.62527 16.3266 5.07119L19.0441 8.28047C19.4045 8.70602 19.1909 9.36195 18.6491 9.49384L16.5707 9.99982L14.3879 7.27008ZM9.70028 15.8176L8.85873 17.7842C8.63936 18.2968 7.95717 18.3993 7.59684 17.9738L4.87927 14.7645C4.50168 14.3185 4.75648 13.6312 5.33352 13.5392L7.36759 13.2148L9.70028 15.8176Z" stroke="white" stroke-width="1.5" stroke-linecap="round" stroke-linejoin="round"/>
</svg>
