<svg width="24" height="24" viewBox="0 0 24 24" fill="none" xmlns="http://www.w3.org/2000/svg">
<rect width="24" height="24" rx="12" fill="#FF88A0"/>
<path d="M18.6339 14.1435L18.1035 13.6133L18.1035 13.6133L18.6339 14.1435ZM14.1468 18.6325L14.6745 19.1655L14.6773 19.1627L14.1468 18.6325ZM12.3757 18.6325L11.8456 19.163L11.8481 19.1655L12.3757 18.6325ZM7 13.2608H6.25C6.25 13.4598 6.32909 13.6506 6.46987 13.7913L7 13.2608ZM7 7V6.25C6.58579 6.25 6.25 6.58579 6.25 7H7ZM13.2582 7L13.7886 6.46978C13.6479 6.32906 13.4571 6.25 13.2582 6.25V7ZM18.6339 12.378L18.1035 12.9082L18.1035 12.9082L18.6339 12.378ZM18.1035 13.6133L13.6164 18.1023L14.6773 19.1627L19.1643 14.6737L18.1035 13.6133ZM13.6192 18.0995C13.5174 18.2003 13.3924 18.25 13.2644 18.25V19.75C13.7998 19.75 14.3007 19.5356 14.6745 19.1655L13.6192 18.0995ZM13.2644 18.25C13.1282 18.25 13.0037 18.1988 12.9034 18.0995L11.8481 19.1655C12.2234 19.537 12.7247 19.75 13.2644 19.75V18.25ZM12.9059 18.102L7.53013 12.7302L6.46987 13.7913L11.8456 19.163L12.9059 18.102ZM7.75 13.2608V7H6.25V13.2608H7.75ZM7 7.75H13.2582V6.25H7V7.75ZM12.7277 7.53022L18.1035 12.9082L19.1643 11.8478L13.7886 6.46978L12.7277 7.53022ZM18.1035 12.9082C18.2988 13.1037 18.2988 13.4178 18.1035 13.6133L19.1643 14.6737C19.9452 13.8925 19.9452 12.629 19.1643 11.8478L18.1035 12.9082ZM11.2565 11.0695C11.2565 11.1742 11.1717 11.2586 11.0678 11.2586V12.7586C12.0008 12.7586 12.7565 12.0021 12.7565 11.0695H11.2565ZM11.0678 11.2586C10.9639 11.2586 10.8791 11.1742 10.8791 11.0695H9.37908C9.37908 12.0021 10.1349 12.7586 11.0678 12.7586V11.2586ZM10.8791 11.0695C10.8791 10.9648 10.9639 10.8804 11.0678 10.8804V9.38038C10.1349 9.38038 9.37908 10.1369 9.37908 11.0695H10.8791ZM11.0678 10.8804C11.1717 10.8804 11.2565 10.9648 11.2565 11.0695H12.7565C12.7565 10.1369 12.0008 9.38038 11.0678 9.38038V10.8804Z" fill="white"/>
</svg>
