<svg width="24" height="24" viewBox="0 0 24 24" fill="none" xmlns="http://www.w3.org/2000/svg">
<rect width="24" height="24" rx="12" fill="#40C8A7"/>
<path d="M9.5998 5.57885V7.11456M12.7998 4.77856V7.11456M5.7998 18.2104H17.7998M9.7998 16.4585H12.9998C14.7671 16.4585 16.1998 15.064 16.1998 13.3438V9.45054C16.1998 9.0205 15.8416 8.67188 15.3998 8.67188H7.3998C6.95798 8.67188 6.5998 9.0205 6.5998 9.45054V13.3438C6.5998 15.064 8.03249 16.4585 9.7998 16.4585ZM20.1959 11.3147C20.3024 12.554 18.203 13.567 16.8658 13.3011C16.2784 13.1843 16.2277 12.8189 16.2277 12.8189C16.2277 12.8189 16.1998 11.671 16.1998 10.9353C16.1998 10.2932 16.3798 9.7214 16.8658 9.57645C18.5309 9.07988 20.0944 10.1334 20.1959 11.3147Z" stroke="white" stroke-width="1.5" stroke-linecap="round"/>
</svg>
