<svg width="24" height="24" viewBox="0 0 24 24" fill="none" xmlns="http://www.w3.org/2000/svg">
<rect width="24" height="24" rx="12" fill="#4E5DE2"/>
<path d="M12 6L12.2701 5.30032L12 5.19606L11.7299 5.30032L12 6ZM4 9.08824L3.7299 8.38856L1.91741 9.08824L3.7299 9.78791L4 9.08824ZM12 12.1765L11.7299 12.8761L12 12.9804L12.2701 12.8761L12 12.1765ZM20 9.08824L20.2701 9.78791L22.0826 9.08824L20.2701 8.38856L20 9.08824ZM19.0017 9.4736L18.7316 8.77392L18.7316 8.77392L19.0017 9.4736ZM7.2 12.75L7.47288 12.0514L6.61452 11.7161L6.46054 12.6247L7.2 12.75ZM7.99999 16.6875L7.50269 17.2489L7.99999 16.6875ZM16 16.6875L16.4973 17.2489L16 16.6875ZM16.8 12.75L17.5395 12.6247L17.3855 11.7161L16.5271 12.0514L16.8 12.75ZM12 14.625L11.7271 15.3236L12 15.4302L12.2729 15.3236L12 14.625ZM11.7299 5.30032L3.7299 8.38856L4.2701 9.78791L12.2701 6.69968L11.7299 5.30032ZM3.7299 9.78791L11.7299 12.8761L12.2701 11.4768L4.2701 8.38856L3.7299 9.78791ZM20.2701 8.38856L12.2701 5.30032L11.7299 6.69968L19.7299 9.78791L20.2701 8.38856ZM12.2701 12.8761L19.2718 10.1733L18.7316 8.77392L11.7299 11.4768L12.2701 12.8761ZM19.2718 10.1733L20.2701 9.78791L19.7299 8.38856L18.7316 8.77392L19.2718 10.1733ZM18.2517 9.4736V16.5H19.7517V9.4736H18.2517ZM7.2 12.75C6.46054 12.6247 6.46051 12.6249 6.46047 12.6251C6.46046 12.6252 6.46042 12.6254 6.46039 12.6255C6.46034 12.6259 6.46027 12.6263 6.4602 12.6267C6.46006 12.6275 6.4599 12.6285 6.4597 12.6297C6.45931 12.6321 6.45881 12.6351 6.45822 12.6388C6.45702 12.6462 6.45543 12.6563 6.45351 12.6689C6.44967 12.6941 6.44452 12.7294 6.43861 12.7738C6.4268 12.8625 6.4119 12.9878 6.39847 13.1407C6.37175 13.4449 6.35011 13.8665 6.37244 14.331C6.41435 15.2027 6.62014 16.4671 7.50269 17.2489L8.4973 16.1261C8.10407 15.7778 7.90987 15.0735 7.87071 14.259C7.85252 13.8804 7.87009 13.5295 7.89271 13.2719C7.90395 13.144 7.91625 13.0411 7.92548 12.9719C7.93009 12.9373 7.93391 12.9112 7.93642 12.8947C7.93767 12.8865 7.93859 12.8807 7.93912 12.8774C7.93939 12.8757 7.93955 12.8747 7.93961 12.8744C7.93964 12.8742 7.93964 12.8742 7.93961 12.8744C7.9396 12.8744 7.93958 12.8745 7.93955 12.8747C7.93954 12.8748 7.93951 12.8749 7.93951 12.875C7.93948 12.8751 7.93945 12.8753 7.2 12.75ZM7.50269 17.2489C8.6771 18.2892 10.5248 18.75 12 18.75V17.25C10.7471 17.25 9.30583 16.8423 8.4973 16.1261L7.50269 17.2489ZM12 18.75C13.4752 18.75 15.3229 18.2892 16.4973 17.2489L15.5027 16.1261C14.6942 16.8423 13.2529 17.25 12 17.25V18.75ZM16.4973 17.2489C17.3798 16.4671 17.5856 15.2027 17.6275 14.331C17.6499 13.8665 17.6282 13.4449 17.6015 13.1407C17.5881 12.9878 17.5732 12.8625 17.5614 12.7738C17.5555 12.7294 17.5503 12.6941 17.5465 12.6689C17.5446 12.6563 17.543 12.6462 17.5418 12.6388C17.5412 12.6351 17.5407 12.6321 17.5403 12.6297C17.5401 12.6285 17.5399 12.6275 17.5398 12.6267C17.5397 12.6263 17.5397 12.6259 17.5396 12.6255C17.5396 12.6254 17.5395 12.6252 17.5395 12.6251C17.5395 12.6249 17.5395 12.6247 16.8 12.75C16.0605 12.8753 16.0605 12.8751 16.0605 12.875C16.0605 12.8749 16.0604 12.8748 16.0604 12.8747C16.0604 12.8745 16.0604 12.8744 16.0604 12.8744C16.0603 12.8742 16.0604 12.8742 16.0604 12.8744C16.0604 12.8747 16.0606 12.8757 16.0609 12.8774C16.0614 12.8807 16.0623 12.8865 16.0636 12.8947C16.0661 12.9112 16.0699 12.9373 16.0745 12.9719C16.0837 13.0411 16.096 13.144 16.1073 13.2719C16.1299 13.5295 16.1475 13.8804 16.1293 14.259C16.0901 15.0735 15.8959 15.7778 15.5027 16.1261L16.4973 17.2489ZM16.5271 12.0514L11.7271 13.9264L12.2729 15.3236L17.0729 13.4486L16.5271 12.0514ZM12.2729 13.9264L7.47288 12.0514L6.92711 13.4486L11.7271 15.3236L12.2729 13.9264Z" fill="white"/>
</svg>
