<svg width="12" height="14" viewBox="0 0 12 14" fill="none" xmlns="http://www.w3.org/2000/svg">
<path fill-rule="evenodd" clip-rule="evenodd" d="M9.59375 4.6C10.5448 4.6 11.3125 3.7942 11.3125 2.8C11.3125 1.8058 10.5448 1 9.59375 1C8.64271 1 7.875 1.8058 7.875 2.8C7.875 3.7942 8.64271 4.6 9.59375 4.6Z" stroke="#818285" stroke-linecap="round" stroke-linejoin="round"/>
<path fill-rule="evenodd" clip-rule="evenodd" d="M2.71875 8.8002C3.66979 8.8002 4.4375 7.9944 4.4375 7.0002C4.4375 6.006 3.66979 5.2002 2.71875 5.2002C1.76771 5.2002 1 6.006 1 7.0002C1 7.9944 1.76771 8.8002 2.71875 8.8002Z" stroke="#818285" stroke-linecap="round" stroke-linejoin="round"/>
<path fill-rule="evenodd" clip-rule="evenodd" d="M9.59375 12.9999C10.5448 12.9999 11.3125 12.1941 11.3125 11.1999C11.3125 10.2057 10.5448 9.3999 9.59375 9.3999C8.64271 9.3999 7.875 10.2057 7.875 11.1999C7.875 12.1941 8.64271 12.9999 9.59375 12.9999Z" stroke="#818285" stroke-linecap="round" stroke-linejoin="round"/>
<path d="M4.20215 7.90576L8.11521 10.2938" stroke="#818285" stroke-linecap="round" stroke-linejoin="round"/>
<path d="M8.10948 3.70605L4.20215 6.09404" stroke="#818285" stroke-linecap="round" stroke-linejoin="round"/>
</svg>
