<svg width="14" height="22" viewBox="0 0 14 22" fill="none" xmlns="http://www.w3.org/2000/svg">
<path d="M4 21H10M4 21C2.34315 21 1 19.6569 1 18M4 21V20M1 18V4C1 3.59655 1.07964 3.21171 1.22405 2.86033M1 18L4 20M13 18V4C13 3.7413 12.9673 3.49024 12.9057 3.25075M13 18C13 19.6569 11.6569 21 10 21M13 18L10 20M10 21V20M10 1H4M10 1V2M10 1C11.3981 1 12.5729 1.95645 12.9057 3.25075M4 1V2M4 1C2.74659 1 1.67272 1.76867 1.22405 2.86033M4 18C6.34315 18 10 18 10 18M4 18C2.34315 18 1 16.6569 1 15V6C1 4.34315 2.34315 3 4 3M4 18C4 18.781 4 20 4 20M10 18C11.6569 18 13 16.6569 13 15V6C13 4.34315 11.6569 3 10 3M10 18V20M10 3H4M10 3V2M4 3V2M4 2L1.22405 2.86033M10 2L12.9057 3.25075" stroke="#FF502F" stroke-width="1.5"/>
</svg>
