<svg width="24" height="24" viewBox="0 0 24 24" fill="none" xmlns="http://www.w3.org/2000/svg">
<rect width="24" height="24" rx="12" fill="#C13BC8"/>
<path d="M17 12.1375C16.5 12.2996 15.4 12.2348 15 10.6788C14.6 9.1228 13.8333 6.7888 13.5 5.8163C13 5.33005 12 4.55206 12 5.33005M17 12.1375V11.6513H17.5H18.25H19V17H18H17H16.5V16.0275M17 12.1375L16.5 16.0275M12 5.33005V15.055M12 5.33005C12 4.55206 10.5 5.8163 10.5 5.8163C10.5 5.8163 9.4 9.1228 9 10.6788C8.6 12.2348 7.5 12.2996 7 12.1375M12 15.055C12.3333 15.3792 13.2 16.0275 14 16.0275H16.5M12 15.055C11.6667 15.3792 10.8 16.0275 10 16.0275H7.5M7 12.1375V11.6513H6.5H5.75H5V17H6H7H7.5V16.0275M7 12.1375L7.5 16.0275" stroke="white" stroke-width="1.5"/>
</svg>
