<svg width="240" height="48" viewBox="0 0 240 48" fill="none" xmlns="http://www.w3.org/2000/svg">
<g clip-path="url(#clip0)">
<rect opacity="0.8" x="-49" y="-40" width="338" height="128" fill="#F5F5F5"/>
<circle opacity="0.1" cx="117.5" cy="21.5" r="36.5" fill="#CCCCCC"/>
<path opacity="0.1" d="M-55.3828 71.5L9.65241 53.7657L49.5703 102.26L-41.6143 121.992L-55.3828 71.5Z" fill="#C4C4C4"/>
<rect x="-38" y="-49" width="7.4474" height="340.932" transform="rotate(-64.2526 -38 -49)" fill="white"/>
<rect x="-62.9961" y="60.7529" width="2.97864" height="363.045" transform="rotate(-101.866 -62.9961 60.7529)" fill="white"/>
<path d="M-63.6094 69.6486L-62.9969 72.5636L61.8012 46.3426L70.5 31.5L55.6476 21.5918L-63.6094 46.6486L-62.9969 49.5636L56.26 24.5068L66.5 32L61.1887 43.4276L-63.6094 69.6486Z" fill="white"/>
<rect x="-42.7373" y="113.225" width="4.52615" height="363.045" transform="rotate(-118.735 -42.7373 113.225)" fill="white"/>
<rect x="11.7969" y="173.072" width="2.97864" height="261.474" transform="rotate(-144.752 11.7969 173.072)" fill="white"/>
<rect x="91.9453" y="203.295" width="2.97864" height="251.566" transform="rotate(-171.274 91.9453 203.295)" fill="white"/>
<rect x="173.984" y="196.696" width="6.18949" height="251.766" transform="rotate(162.875 173.984 196.696)" fill="white"/>
<path d="M105 -12.5L86 3L83 8.5L81.5 29L86 40.5L96.5 51.5L113 57.5L128.5 56.5L141.5 49.5L150.5 37L153.5 14L150.5 4.5L138.5 -8.5L122.5 -14.5L105 -12.5Z" stroke="white" stroke-width="5"/>
<path d="M33 27.5L14.5 10L2 33.5" stroke="white" stroke-width="3"/>
<path d="M25 20.5L32.4068 9M44 -9L32.4068 9M57 23L59.3222 17.5M66.5 0.5L59.3222 17.5M32.4068 9L59.3222 17.5" stroke="white" stroke-width="3"/>
<path d="M218.5 -19L129 61.5L195.581 88M229.5 101.5L195.581 88M272 -39.5L177 80.6045L136.5 88M80.5 78L107.5 84M62.5 46L67.5 50.5M11 56.5L40 91M-37.5 66L7 84L13.5 101.5M-51 -28.5L-35.3278 78M-29 121L-35.3278 78M-47.5 68.5L-55.5 81.25M-63.5 94L-55.5 81.25M-55.5 81.25L-35.3278 78M208 71L195.581 88" stroke="white" stroke-width="4"/>
<path d="M220.5 76.5V97.5M223 71.5L253.5 38.5436M297.5 -9L253.5 38.5436M253.5 -5L274 13M194 6L233 35M233 35C220.2 41 212.333 40.1667 210 39L173.5 24M233 35C237 32.6957 246.7 30.1785 253.5 38.5436" stroke="white" stroke-width="3"/>
<path d="M109 57L92.5 80M111 73L103.5 82M84.5 43L82 54.5L51 94" stroke="white" stroke-width="3"/>
<path d="M3 35L-7 -7.57143M-34 41.5L-22.9259 -4.5M-22.9259 -4.5L-14.5 -39.5L-7 -7.57143M-22.9259 -4.5L-7 -7.57143" stroke="white" stroke-width="4"/>
<circle cx="117.5" cy="21.5" r="14" fill="#F5F5F5" stroke="white" stroke-width="7"/>
<path fill-rule="evenodd" clip-rule="evenodd" d="M54 22.6772C54 27.3084 48 31.2781 48 31.2781C48 31.2781 42 27.3084 42 22.6772C42 19.3883 44.686 16.7227 48 16.7227C51.314 16.7227 54 19.3883 54 22.6772Z" stroke="#FF502F" stroke-width="1.5" stroke-linecap="round" stroke-linejoin="round"/>
<path fill-rule="evenodd" clip-rule="evenodd" d="M48.001 24.6621C49.1056 24.6621 50.001 23.7735 50.001 22.6772C50.001 21.5809 49.1056 20.6924 48.001 20.6924C46.8963 20.6924 46.001 21.5809 46.001 22.6772C46.001 23.7735 46.8963 24.6621 48.001 24.6621Z" fill="white" stroke="#FF502F" stroke-width="1.5" stroke-linecap="round" stroke-linejoin="round"/>
<path d="M67.852 29.112C66.872 29.112 65.9853 28.8973 65.192 28.468C64.408 28.0293 63.792 27.432 63.344 26.676C62.896 25.9107 62.672 25.052 62.672 24.1C62.672 23.148 62.896 22.294 63.344 21.538C63.792 20.7727 64.4127 20.1753 65.206 19.746C65.9993 19.3073 66.886 19.088 67.866 19.088C68.6313 19.088 69.3313 19.2187 69.966 19.48C70.6007 19.732 71.142 20.11 71.59 20.614L70.68 21.496C69.9427 20.7213 69.0233 20.334 67.922 20.334C67.194 20.334 66.536 20.4973 65.948 20.824C65.36 21.1507 64.898 21.6033 64.562 22.182C64.2353 22.7513 64.072 23.3907 64.072 24.1C64.072 24.8093 64.2353 25.4533 64.562 26.032C64.898 26.6013 65.36 27.0493 65.948 27.376C66.536 27.7027 67.194 27.866 67.922 27.866C69.014 27.866 69.9333 27.474 70.68 26.69L71.59 27.572C71.142 28.076 70.596 28.4587 69.952 28.72C69.3173 28.9813 68.6173 29.112 67.852 29.112ZM81.9732 21.58V29H80.7552V23.582L77.9832 28.16H77.3952L74.6512 23.568V29H73.4192V21.58H74.8052L77.7172 26.592L80.7132 21.58H81.9732ZM87.7671 29.084C87.0298 29.084 86.3671 28.9207 85.7791 28.594C85.1911 28.2673 84.7291 27.8193 84.3931 27.25C84.0664 26.6713 83.9031 26.018 83.9031 25.29C83.9031 24.562 84.0664 23.9133 84.3931 23.344C84.7291 22.7653 85.1911 22.3173 85.7791 22C86.3671 21.6733 87.0298 21.51 87.7671 21.51C88.5044 21.51 89.1624 21.6733 89.7411 22C90.3291 22.3173 90.7864 22.7653 91.1131 23.344C91.4491 23.9133 91.6171 24.562 91.6171 25.29C91.6171 26.018 91.4491 26.6713 91.1131 27.25C90.7864 27.8193 90.3291 28.2673 89.7411 28.594C89.1624 28.9207 88.5044 29.084 87.7671 29.084ZM87.7671 27.908C88.2431 27.908 88.6678 27.8007 89.0411 27.586C89.4238 27.362 89.7224 27.054 89.9371 26.662C90.1518 26.2607 90.2591 25.8033 90.2591 25.29C90.2591 24.7767 90.1518 24.324 89.9371 23.932C89.7224 23.5307 89.4238 23.2227 89.0411 23.008C88.6678 22.7933 88.2431 22.686 87.7671 22.686C87.2911 22.686 86.8618 22.7933 86.4791 23.008C86.1058 23.2227 85.8071 23.5307 85.5831 23.932C85.3684 24.324 85.2611 24.7767 85.2611 25.29C85.2611 25.8033 85.3684 26.2607 85.5831 26.662C85.8071 27.054 86.1058 27.362 86.4791 27.586C86.8618 27.8007 87.2911 27.908 87.7671 27.908ZM98.8144 22.756H96.0984V29H94.7544V22.756H92.0384V21.58H98.8144V22.756ZM104.123 21.51C104.841 21.51 105.485 21.6687 106.055 21.986C106.624 22.3033 107.067 22.7467 107.385 23.316C107.711 23.8853 107.875 24.5433 107.875 25.29C107.875 26.0367 107.711 26.6993 107.385 27.278C107.067 27.8473 106.624 28.2907 106.055 28.608C105.485 28.9253 104.841 29.084 104.123 29.084C103.591 29.084 103.101 28.9813 102.653 28.776C102.214 28.5707 101.841 28.272 101.533 27.88V31.716H100.189V21.58H101.477V22.756C101.775 22.3453 102.153 22.0373 102.611 21.832C103.068 21.6173 103.572 21.51 104.123 21.51ZM104.011 27.908C104.487 27.908 104.911 27.8007 105.285 27.586C105.667 27.362 105.966 27.054 106.181 26.662C106.405 26.2607 106.517 25.8033 106.517 25.29C106.517 24.7767 106.405 24.324 106.181 23.932C105.966 23.5307 105.667 23.2227 105.285 23.008C104.911 22.7933 104.487 22.686 104.011 22.686C103.544 22.686 103.119 22.798 102.737 23.022C102.363 23.2367 102.065 23.54 101.841 23.932C101.626 24.324 101.519 24.7767 101.519 25.29C101.519 25.8033 101.626 26.2607 101.841 26.662C102.055 27.054 102.354 27.362 102.737 27.586C103.119 27.8007 103.544 27.908 104.011 27.908ZM116.533 25.332C116.533 25.4347 116.524 25.57 116.505 25.738H110.485C110.569 26.3913 110.854 26.9187 111.339 27.32C111.834 27.712 112.445 27.908 113.173 27.908C114.06 27.908 114.774 27.6093 115.315 27.012L116.057 27.88C115.721 28.272 115.301 28.5707 114.797 28.776C114.303 28.9813 113.747 29.084 113.131 29.084C112.347 29.084 111.652 28.9253 111.045 28.608C110.439 28.2813 109.967 27.8287 109.631 27.25C109.305 26.6713 109.141 26.018 109.141 25.29C109.141 24.5713 109.3 23.9227 109.617 23.344C109.944 22.7653 110.387 22.3173 110.947 22C111.517 21.6733 112.156 21.51 112.865 21.51C113.575 21.51 114.205 21.6733 114.755 22C115.315 22.3173 115.749 22.7653 116.057 23.344C116.375 23.9227 116.533 24.5853 116.533 25.332ZM112.865 22.644C112.221 22.644 111.68 22.84 111.241 23.232C110.812 23.624 110.56 24.1373 110.485 24.772H115.245C115.171 24.1467 114.914 23.638 114.475 23.246C114.046 22.8447 113.509 22.644 112.865 22.644ZM123.834 22.756H121.118V29H119.774V22.756H117.058V21.58H123.834V22.756ZM128.638 24.1C129.581 24.1093 130.3 24.324 130.794 24.744C131.289 25.164 131.536 25.7567 131.536 26.522C131.536 27.3247 131.266 27.9453 130.724 28.384C130.192 28.8133 129.427 29.0233 128.428 29.014L125.208 29V21.58H126.552V24.086L128.638 24.1ZM128.316 27.992C128.923 28.0013 129.38 27.88 129.688 27.628C130.006 27.376 130.164 27.0027 130.164 26.508C130.164 26.0227 130.01 25.668 129.702 25.444C129.404 25.22 128.942 25.1033 128.316 25.094L126.552 25.066V27.978L128.316 27.992ZM137.021 21.58H138.365V24.73H142.593V21.58H143.937V29H142.593V25.892H138.365V29H137.021V21.58ZM149.196 21.51C150.223 21.51 151.007 21.762 151.548 22.266C152.099 22.77 152.374 23.5213 152.374 24.52V29H151.1V28.02C150.876 28.3653 150.554 28.6313 150.134 28.818C149.723 28.9953 149.233 29.084 148.664 29.084C147.833 29.084 147.166 28.8833 146.662 28.482C146.167 28.0807 145.92 27.5533 145.92 26.9C145.92 26.2467 146.158 25.724 146.634 25.332C147.11 24.9307 147.866 24.73 148.902 24.73H151.03V24.464C151.03 23.8853 150.862 23.442 150.526 23.134C150.19 22.826 149.695 22.672 149.042 22.672C148.603 22.672 148.174 22.7467 147.754 22.896C147.334 23.036 146.979 23.2273 146.69 23.47L146.13 22.462C146.513 22.154 146.97 21.9207 147.502 21.762C148.034 21.594 148.599 21.51 149.196 21.51ZM148.888 28.048C149.401 28.048 149.845 27.936 150.218 27.712C150.591 27.4787 150.862 27.152 151.03 26.732V25.696H148.958C147.819 25.696 147.25 26.0787 147.25 26.844C147.25 27.2173 147.395 27.5113 147.684 27.726C147.973 27.9407 148.375 28.048 148.888 28.048ZM161.438 25.864H159.898V29H158.554V21.58H159.898V24.716H161.466L163.874 21.58H165.316L162.502 25.15L165.512 29H163.93L161.438 25.864ZM169.43 21.51C170.457 21.51 171.241 21.762 171.782 22.266C172.333 22.77 172.608 23.5213 172.608 24.52V29H171.334V28.02C171.11 28.3653 170.788 28.6313 170.368 28.818C169.958 28.9953 169.468 29.084 168.898 29.084C168.068 29.084 167.4 28.8833 166.896 28.482C166.402 28.0807 166.154 27.5533 166.154 26.9C166.154 26.2467 166.392 25.724 166.868 25.332C167.344 24.9307 168.1 24.73 169.136 24.73H171.264V24.464C171.264 23.8853 171.096 23.442 170.76 23.134C170.424 22.826 169.93 22.672 169.276 22.672C168.838 22.672 168.408 22.7467 167.988 22.896C167.568 23.036 167.214 23.2273 166.924 23.47L166.364 22.462C166.747 22.154 167.204 21.9207 167.736 21.762C168.268 21.594 168.833 21.51 169.43 21.51ZM169.122 28.048C169.636 28.048 170.079 27.936 170.452 27.712C170.826 27.4787 171.096 27.152 171.264 26.732V25.696H169.192C168.054 25.696 167.484 26.0787 167.484 26.844C167.484 27.2173 167.629 27.5113 167.918 27.726C168.208 27.9407 168.609 28.048 169.122 28.048ZM178.963 21.51C179.681 21.51 180.325 21.6687 180.895 21.986C181.464 22.3033 181.907 22.7467 182.225 23.316C182.551 23.8853 182.715 24.5433 182.715 25.29C182.715 26.0367 182.551 26.6993 182.225 27.278C181.907 27.8473 181.464 28.2907 180.895 28.608C180.325 28.9253 179.681 29.084 178.963 29.084C178.431 29.084 177.941 28.9813 177.493 28.776C177.054 28.5707 176.681 28.272 176.373 27.88V31.716H175.029V21.58H176.317V22.756C176.615 22.3453 176.993 22.0373 177.451 21.832C177.908 21.6173 178.412 21.51 178.963 21.51ZM178.851 27.908C179.327 27.908 179.751 27.8007 180.125 27.586C180.507 27.362 180.806 27.054 181.021 26.662C181.245 26.2607 181.357 25.8033 181.357 25.29C181.357 24.7767 181.245 24.324 181.021 23.932C180.806 23.5307 180.507 23.2227 180.125 23.008C179.751 22.7933 179.327 22.686 178.851 22.686C178.384 22.686 177.959 22.798 177.577 23.022C177.203 23.2367 176.905 23.54 176.681 23.932C176.466 24.324 176.359 24.7767 176.359 25.29C176.359 25.8033 176.466 26.2607 176.681 26.662C176.895 27.054 177.194 27.362 177.577 27.586C177.959 27.8007 178.384 27.908 178.851 27.908ZM189.924 22.756H187.208V29H185.864V22.756H183.148V21.58H189.924V22.756ZM197.676 25.332C197.676 25.4347 197.667 25.57 197.648 25.738H191.628C191.712 26.3913 191.997 26.9187 192.482 27.32C192.977 27.712 193.588 27.908 194.316 27.908C195.203 27.908 195.917 27.6093 196.458 27.012L197.2 27.88C196.864 28.272 196.444 28.5707 195.94 28.776C195.445 28.9813 194.89 29.084 194.274 29.084C193.49 29.084 192.795 28.9253 192.188 28.608C191.581 28.2813 191.11 27.8287 190.774 27.25C190.447 26.6713 190.284 26.018 190.284 25.29C190.284 24.5713 190.443 23.9227 190.76 23.344C191.087 22.7653 191.53 22.3173 192.09 22C192.659 21.6733 193.299 21.51 194.008 21.51C194.717 21.51 195.347 21.6733 195.898 22C196.458 22.3173 196.892 22.7653 197.2 23.344C197.517 23.9227 197.676 24.5853 197.676 25.332ZM194.008 22.644C193.364 22.644 192.823 22.84 192.384 23.232C191.955 23.624 191.703 24.1373 191.628 24.772H196.388C196.313 24.1467 196.057 23.638 195.618 23.246C195.189 22.8447 194.652 22.644 194.008 22.644Z" fill="#151D33"/>
</g>
<rect x="0.5" y="0.5" width="239" height="47" rx="7.5" stroke="#CCCCCC"/>
<defs>
<clipPath id="clip0">
</clipPath>
</defs>
</svg>
