<svg width="33" height="41" viewBox="0 0 33 41" fill="none" xmlns="http://www.w3.org/2000/svg">
<g clip-path="url(#clip0)">
<path d="M4.19024 0.0001454C1.88033 0.0001454 0 1.90164 0 4.2358V36.7643C0 39.0985 1.88033 41 4.19024 41H28.8045C31.1144 41 32.9948 39.0986 32.9948 36.7643V10.0168C32.9948 10.0168 33.0607 9.2336 32.7242 8.47145C32.4088 7.75704 31.8948 7.2598 31.8948 7.2598C31.8935 7.25804 31.8923 7.25629 31.891 7.25454L25.7841 1.2014C25.7807 1.19795 25.7773 1.19453 25.7739 1.19115C25.7739 1.19115 25.2525 0.689441 24.4796 0.354285C23.5696 -0.0403447 22.6316 0.00131361 22.6316 0.00131361L22.6455 0L4.19024 0.0001454Z" fill="#FF2116"/>
<path d="M4.19034 1.39136H22.6457C22.6503 1.39141 22.655 1.39141 22.6596 1.39136C22.6596 1.39136 23.3976 1.39858 23.9374 1.63266C24.457 1.85795 24.8253 2.19898 24.8278 2.20127C24.8278 2.20128 24.8303 2.2039 24.8303 2.2039L30.922 8.24291C30.922 8.24291 31.289 8.63447 31.4669 9.03743C31.6105 9.36267 31.6193 9.95772 31.6193 9.95772C31.6187 9.96754 31.6182 9.97738 31.618 9.98722V36.7643C31.618 38.3519 30.3757 39.6086 28.8046 39.6086H4.19034C2.61923 39.6086 1.37695 38.352 1.37695 36.7643V4.23571C1.37695 2.64798 2.61923 1.39141 4.19034 1.39141V1.39136Z" fill="#F5F5F5"/>
<path d="M8.23884 24.4112C7.29153 23.4539 8.31645 22.1384 11.098 20.7415L12.8481 19.8626L13.5299 18.3551C13.905 17.5259 14.4646 16.1731 14.7737 15.3487L15.3356 13.8498L14.9484 12.7405C14.4723 11.3766 14.3025 9.32696 14.6046 8.58995C15.0138 7.59165 16.3541 7.69408 16.8848 8.7642C17.2992 9.59996 17.2568 11.1135 16.7656 13.0223L16.3628 14.5872L16.7176 15.1957C16.9127 15.5304 17.4826 16.3252 17.9841 16.9618L18.9265 18.1465L20.0993 17.9919C23.825 17.5006 25.1011 18.3356 25.1011 19.5328C25.1011 21.0437 22.1756 21.1685 19.719 19.4248C19.1662 19.0325 18.7866 18.6428 18.7866 18.6428C18.7866 18.6428 17.2476 18.9594 16.4899 19.1658C15.7078 19.3788 15.3175 19.5122 14.1718 19.903C14.1718 19.903 13.7698 20.493 13.5079 20.9218C12.5333 22.5174 11.3954 23.8396 10.5828 24.3209C9.67294 24.8597 8.7191 24.8965 8.23884 24.4112ZM9.7255 23.8745C10.258 23.5419 11.3358 22.2537 12.0819 21.0581L12.3839 20.5741L11.0085 21.2729C8.88424 22.3522 7.91241 23.3695 8.41776 23.9848C8.70164 24.3305 9.04124 24.3018 9.7255 23.8745ZM23.524 19.9605C24.0449 19.5919 23.9692 18.849 23.3804 18.5494C22.9222 18.3163 22.5528 18.2684 21.3624 18.2862C20.6308 18.3366 19.4545 18.4856 19.2551 18.5309C19.2551 18.5309 19.9014 18.9822 20.1883 19.1481C20.5702 19.3686 21.4983 19.7778 22.176 19.9874C22.8444 20.1941 23.2311 20.1723 23.524 19.9605V19.9605ZM17.9758 17.6302C17.6606 17.2954 17.1246 16.5965 16.7847 16.0772C16.3402 15.4881 16.1173 15.0725 16.1173 15.0725C16.1173 15.0725 15.7924 16.1285 15.5259 16.764L14.6943 18.8411L14.4532 19.3123C14.4532 19.3123 15.735 18.8876 16.3871 18.7154C17.0779 18.5331 18.4798 18.2546 18.4798 18.2546L17.9758 17.6302ZM16.1878 10.3845C16.2682 9.70265 16.3024 9.02185 16.0856 8.67854C15.4843 8.01429 14.7586 8.56822 14.8815 10.1474C14.9229 10.6787 15.0535 11.5868 15.2281 12.1466L15.5455 13.1643L15.769 12.3978C15.8919 11.9762 16.0804 11.0702 16.1878 10.3845Z" fill="#FF2116"/>
<path d="M9.84961 28.8442H11.3876C11.879 28.8442 12.2779 28.8918 12.5843 28.9868C12.8907 29.0787 13.1486 29.2857 13.3579 29.6075C13.5672 29.9263 13.6718 30.3111 13.6718 30.7617C13.6718 31.1755 13.5869 31.5311 13.417 31.8285C13.2472 32.1258 13.0181 32.3404 12.7299 32.4722C12.4448 32.604 12.0049 32.6699 11.4104 32.6699H10.878V35.1208H9.84961V28.8442ZM10.878 29.6489V31.8377H11.3876C11.8426 31.8377 12.1566 31.7518 12.3295 31.5802C12.5055 31.4085 12.5934 31.1295 12.5934 30.7433C12.5934 30.4551 12.5358 30.2222 12.4205 30.0444C12.3052 29.8635 12.1778 29.7532 12.0383 29.7133C11.9018 29.6704 11.6849 29.6489 11.3876 29.6489L10.878 29.6489Z" fill="#2C2C2C"/>
<path d="M14.459 28.8442H15.8559C16.5324 28.8442 17.0724 28.9653 17.4758 29.2075C17.8823 29.4497 18.1887 29.8099 18.395 30.2881C18.6043 30.7663 18.7089 31.2966 18.7089 31.879C18.7089 32.4921 18.6149 33.0393 18.4268 33.5206C18.2418 33.9988 17.9566 34.3851 17.5714 34.6794C17.1892 34.9736 16.6431 35.1208 15.9333 35.1208H14.459V28.8442ZM15.4873 29.6765V34.2885H15.9151C16.5127 34.2885 16.9465 34.0801 17.2165 33.6631C17.4864 33.2432 17.6214 32.6837 17.6214 31.9848C17.6214 30.4459 17.0526 29.6765 15.9151 29.6765H15.4873Z" fill="#2C2C2C"/>
<path d="M19.6963 28.8442H23.1454V29.6765H20.7247V31.5526H22.6631V32.3849H20.7247V35.1208H19.6963V28.8442Z" fill="#2C2C2C"/>
</g>
<defs>
<clipPath id="clip0">
<rect width="33" height="41" fill="white"/>
</clipPath>
</defs>
</svg>
