<svg width="24" height="24" viewBox="0 0 24 24" fill="none" xmlns="http://www.w3.org/2000/svg">
<g clip-path="url(#clip0)">
<path d="M0 11.5C0 6.07885 0 3.36827 1.68413 1.68413C3.36827 0 6.07885 0 11.5 0H12.5C17.9212 0 20.6317 0 22.3158 1.68413C24 3.36827 24 6.07885 24 11.5V12.5C24 17.9212 24 20.6317 22.3158 22.3158C20.6317 24 17.9212 24 12.5 24H11.5C6.07885 24 3.36827 24 1.68413 22.3158C0 20.6317 0 17.9212 0 12.5L0 11.5Z" fill="white"/>
<path d="M12.0251 12.2603C14.2273 12.2603 16.0225 10.4651 16.0225 8.26296C16.0225 6.06084 14.2273 4.26562 12.0251 4.26562C9.79912 4.26562 8.00391 6.06084 8.00391 8.26296C8.00391 10.4651 9.79912 12.2603 12.0251 12.2603ZM12.0251 6.61136C12.9347 6.61136 13.6768 7.35339 13.6768 8.26296C13.6768 9.17254 12.9347 9.91451 12.0251 9.91451C11.1157 9.91451 10.3736 9.17254 10.3736 8.26296C10.3496 7.35339 11.0917 6.61136 12.0251 6.61136Z" fill="#CCCCCC"/>
<path d="M13.6289 15.5406C14.4427 15.3491 15.2326 15.0379 15.9507 14.5832C16.5012 14.248 16.6688 13.5061 16.3097 12.9555C15.9747 12.405 15.2326 12.2374 14.6821 12.5965C13.0544 13.6257 10.9241 13.6257 9.29648 12.5965C8.74595 12.2614 8.02788 12.405 7.66882 12.9555C7.35766 13.5061 7.52521 14.2241 8.07575 14.5592C8.79383 15.0141 9.58371 15.3251 10.3976 15.5166L8.17149 17.7427C7.7167 18.1976 7.7167 18.9395 8.17149 19.3944C8.41085 19.6337 8.69808 19.7294 9.00925 19.7294C9.32042 19.7294 9.60765 19.6097 9.84702 19.3944L12.0491 17.1922L14.2513 19.3944C14.706 19.8491 15.4481 19.8491 15.9028 19.3944C16.3576 18.9395 16.3576 18.1976 15.9028 17.7427L13.6289 15.5406Z" fill="#CCCCCC"/>
</g>
<defs>
<clipPath id="clip0">
<path d="M0 0H24V24H0V0Z" fill="white"/>
</clipPath>
</defs>
</svg>
