<svg width="24" height="24" viewBox="0 0 24 24" fill="none" xmlns="http://www.w3.org/2000/svg">
<g clip-path="url(#clip0)">
<path d="M0 11.5C0 6.07885 0 3.36827 1.68413 1.68413C3.36827 0 6.07885 0 11.5 0H12.5C17.9212 0 20.6317 0 22.3158 1.68413C24 3.36827 24 6.07885 24 11.5V12.5C24 17.9212 24 20.6317 22.3158 22.3158C20.6317 24 17.9212 24 12.5 24H11.5C6.07885 24 3.36827 24 1.68413 22.3158C0 20.6317 0 17.9212 0 12.5L0 11.5Z" fill="#FF8800"/>
<path d="M12.0251 12.2603C14.2273 12.2603 16.0225 10.4651 16.0225 8.26296C16.0225 6.06084 14.2273 4.26562 12.0251 4.26562C9.79912 4.26562 8.00391 6.06084 8.00391 8.26296C8.00391 10.4651 9.79912 12.2603 12.0251 12.2603ZM12.0251 6.61136C12.9347 6.61136 13.6768 7.35339 13.6768 8.26296C13.6768 9.17254 12.9347 9.91451 12.0251 9.91451C11.1157 9.91451 10.3736 9.17254 10.3736 8.26296C10.3496 7.35339 11.0917 6.61136 12.0251 6.61136Z" fill="white"/>
<path d="M13.6293 15.5406C14.4431 15.3491 15.233 15.0379 15.9511 14.5832C16.5016 14.248 16.6691 13.5061 16.3101 12.9555C15.975 12.405 15.233 12.2374 14.6824 12.5965C13.0548 13.6257 10.9245 13.6257 9.29685 12.5965C8.74632 12.2614 8.02824 12.405 7.66919 12.9555C7.35802 13.5061 7.52557 14.2241 8.07611 14.5592C8.79419 15.0141 9.58408 15.3251 10.3979 15.5166L8.17186 17.7427C7.71706 18.1976 7.71706 18.9395 8.17186 19.3944C8.41122 19.6337 8.69845 19.7294 9.00962 19.7294C9.32078 19.7294 9.60802 19.6097 9.84739 19.3944L12.0495 17.1922L14.2517 19.3944C14.7064 19.8491 15.4485 19.8491 15.9032 19.3944C16.358 18.9395 16.358 18.1976 15.9032 17.7427L13.6293 15.5406Z" fill="white"/>
</g>
<defs>
<clipPath id="clip0">
<path d="M0 0H24V24H0V0Z" fill="white"/>
</clipPath>
</defs>
</svg>
