<svg width="24" height="24" viewBox="0 0 24 24" fill="none" xmlns="http://www.w3.org/2000/svg">
<g clip-path="url(#clip0)">
<path d="M0 11.5C0 6.07885 0 3.36827 1.68413 1.68413C3.36827 0 6.07885 0 11.5 0H12.5C17.9212 0 20.6317 0 22.3158 1.68413C24 3.36827 24 6.07885 24 11.5V12.5C24 17.9212 24 20.6317 22.3158 22.3158C20.6317 24 17.9212 24 12.5 24H11.5C6.07885 24 3.36827 24 1.68413 22.3158C0 20.6317 0 17.9212 0 12.5L0 11.5Z" fill="#F5F5F5"/>
<path fill-rule="evenodd" clip-rule="evenodd" d="M19.4784 5.99971C18.8513 6.45586 18.1575 6.80526 17.4231 7.03368C16.6154 6.07541 15.3142 5.73885 14.1648 6.19163C13.0154 6.64508 12.262 7.79056 12.2784 9.06104V9.73683C9.9423 9.79967 7.73059 8.65014 6.38746 6.67549C6.38746 6.67549 3.76928 12.7576 9.66019 15.4607C8.31248 16.4055 6.70622 16.8792 5.07837 16.8123C10.9693 20.1912 18.1693 16.8123 18.1693 9.04075C18.1686 8.8522 18.1509 8.665 18.1169 8.47983C18.7852 7.79999 19.2565 6.94108 19.4784 5.99971Z" fill="#CCCCCC"/>
</g>
<defs>
<clipPath id="clip0">
<rect width="24" height="24" fill="white"/>
</clipPath>
</defs>
</svg>
