<svg width="24" height="24" viewBox="0 0 24 24" fill="none" xmlns="http://www.w3.org/2000/svg">
<g clip-path="url(#clip0)">
<path d="M0 11.5C0 6.07885 0 3.36827 1.68413 1.68413C3.36827 0 6.07885 0 11.5 0H12.5C17.9212 0 20.6318 0 22.3158 1.68413C24 3.36827 24 6.07885 24 11.5V12.5C24 17.9212 24 20.6318 22.3158 22.3158C20.6318 24 17.9212 24 12.5 24H11.5C6.07885 24 3.36827 24 1.68413 22.3158C0 20.6318 0 17.9212 0 12.5L0 11.5Z" fill="#46BCFF"/>
<path fill-rule="evenodd" clip-rule="evenodd" d="M19.4781 5.99971C18.8511 6.45586 18.1572 6.80526 17.4228 7.03368C16.6151 6.07541 15.3139 5.73885 14.1645 6.19163C13.0152 6.64508 12.2618 7.79056 12.2781 9.06104V9.73683C9.94205 9.79967 7.73034 8.65014 6.38722 6.67549C6.38722 6.67549 3.76903 12.7576 9.65994 15.4607C8.31223 16.4055 6.70598 16.8792 5.07812 16.8123C10.969 20.1912 18.169 16.8123 18.169 9.04075C18.1684 8.8522 18.1507 8.665 18.1167 8.47983C18.7849 7.79999 19.2562 6.94108 19.4781 5.99971Z" fill="white"/>
</g>
<defs>
<clipPath id="clip0">
<rect width="24" height="24" fill="white"/>
</clipPath>
</defs>
</svg>
