<svg width="95" height="95" viewBox="0 0 95 95" fill="none" xmlns="http://www.w3.org/2000/svg">
<path d="M17.3752 20.5508H51.9876" stroke="#9ECACB" stroke-width="2.18605" stroke-linecap="round" stroke-linejoin="round"/>
<path d="M17.3752 29.2041H51.9876" stroke="#9ECACB" stroke-width="2.18605" stroke-linecap="round" stroke-linejoin="round"/>
<path d="M17.3752 37.8574H51.9876" stroke="#9ECACB" stroke-width="2.18605" stroke-linecap="round" stroke-linejoin="round"/>
<path d="M17.3752 24.8779H51.9876" stroke="#9ECACB" stroke-width="2.18605" stroke-linecap="round" stroke-linejoin="round"/>
<path d="M17.3752 33.5308H51.9876" stroke="#9ECACB" stroke-width="2.18605" stroke-linecap="round" stroke-linejoin="round"/>
<path d="M17.3752 42.1841H51.9876" stroke="#9ECACB" stroke-width="2.18605" stroke-linecap="round" stroke-linejoin="round"/>
<path d="M72.81 22.5879C75.1982 19.7104 75.562 18.0171 75.703 12.8647C75.8441 18.0171 76.2079 19.7104 78.596 22.5879C78.9165 22.974 78.9165 23.5367 78.596 23.9228C76.2079 26.8003 75.8441 28.4936 75.703 33.646C75.562 28.4936 75.1982 26.8003 72.81 23.9228C72.4896 23.5367 72.4896 22.974 72.81 22.5879Z" fill="#9ECACB" stroke="#9ECACB" stroke-linecap="round" stroke-linejoin="round"/>
<mask id="path-8-inside-1" fill="white">
<path d="M16.8345 8.60691H10.8855V61.1121C10.8855 62.3069 11.854 63.2754 13.0488 63.2754H52.448H55.2326C56.1339 63.2754 56.9065 62.7242 57.2316 61.9406C57.1632 61.8382 57.0939 61.735 57.0239 61.631C55.092 58.7634 54.0326 56.8167 53.5514 55.4755H51.7074H51.4584L53.2271 54.0314C53.1993 53.2198 53.5624 52.8146 54.0774 52.5598C53.063 51.5559 54.7554 49.4287 57.3959 47.6955V2.6579C57.3959 1.46316 56.4274 0.494629 55.2326 0.494629H18.9978V6.44364C18.9978 7.63838 18.0292 8.60691 16.8345 8.60691Z"/>
<path d="M50.2847 66.2444C51.4795 66.2444 52.448 65.2758 52.448 64.0811V63.2754H13.0488C11.854 63.2754 10.8855 62.3069 10.8855 61.1121V8.60691L16.5238 2.96859H8.10086C6.90611 2.96859 5.93758 3.93712 5.93758 5.13186V6.43213V64.0811C5.93758 65.2758 6.90611 66.2444 8.10086 66.2444H46.5105H50.2847Z"/>
<path d="M2.65815 69.2131H44.3472C45.542 69.2131 46.5105 68.2446 46.5105 67.0499V66.2444H8.10086C6.90611 66.2444 5.93758 65.2758 5.93758 64.0811V6.43213H2.65815C1.4634 6.43213 0.494873 7.40066 0.494873 8.5954V67.0499C0.494873 68.2446 1.4634 69.2131 2.65815 69.2131Z"/>
<path d="M10.8855 8.60691H16.8345C18.0292 8.60691 18.9978 7.63838 18.9978 6.44364V0.494629L16.5238 2.96859L10.8855 8.60691Z"/>
</mask>
<path d="M16.8345 8.60691H10.8855V61.1121C10.8855 62.3069 11.854 63.2754 13.0488 63.2754H52.448H55.2326C56.1339 63.2754 56.9065 62.7242 57.2316 61.9406C57.1632 61.8382 57.0939 61.735 57.0239 61.631C55.092 58.7634 54.0326 56.8167 53.5514 55.4755H51.7074H51.4584L53.2271 54.0314C53.1993 53.2198 53.5624 52.8146 54.0774 52.5598C53.063 51.5559 54.7554 49.4287 57.3959 47.6955V2.6579C57.3959 1.46316 56.4274 0.494629 55.2326 0.494629H18.9978V6.44364C18.9978 7.63838 18.0292 8.60691 16.8345 8.60691Z" fill="#F0F2F7"/>
<path d="M50.2847 66.2444C51.4795 66.2444 52.448 65.2758 52.448 64.0811V63.2754H13.0488C11.854 63.2754 10.8855 62.3069 10.8855 61.1121V8.60691L16.5238 2.96859H8.10086C6.90611 2.96859 5.93758 3.93712 5.93758 5.13186V6.43213V64.0811C5.93758 65.2758 6.90611 66.2444 8.10086 66.2444H46.5105H50.2847Z" fill="#F0F2F7"/>
<path d="M2.65815 69.2131H44.3472C45.542 69.2131 46.5105 68.2446 46.5105 67.0499V66.2444H8.10086C6.90611 66.2444 5.93758 65.2758 5.93758 64.0811V6.43213H2.65815C1.4634 6.43213 0.494873 7.40066 0.494873 8.5954V67.0499C0.494873 68.2446 1.4634 69.2131 2.65815 69.2131Z" fill="#F0F2F7"/>
<path d="M10.8855 8.60691H16.8345C18.0292 8.60691 18.9978 7.63838 18.9978 6.44364V0.494629L16.5238 2.96859L10.8855 8.60691Z" fill="#F0F2F7"/>
<path d="M10.8855 8.60691L10.5319 8.25336L10.3855 8.3998V8.60691H10.8855ZM53.7268 54.0143C53.7174 53.7383 53.486 53.5223 53.21 53.5317C52.934 53.5412 52.7179 53.7726 52.7274 54.0486L53.7268 54.0143ZM53.0808 55.6444C53.1741 55.9043 53.4604 56.0394 53.7203 55.9462C53.9802 55.8529 54.1153 55.5666 54.0221 55.3067L53.0808 55.6444ZM46.5105 66.7444C46.7866 66.7444 47.0105 66.5205 47.0105 66.2444C47.0105 65.9682 46.7866 65.7444 46.5105 65.7444V66.7444ZM52.448 63.7754C52.7241 63.7754 52.948 63.5515 52.948 63.2754C52.948 62.9992 52.7241 62.7754 52.448 62.7754V63.7754ZM6.43758 6.43213C6.43758 6.15599 6.21372 5.93213 5.93758 5.93213C5.66144 5.93213 5.43758 6.15599 5.43758 6.43213H6.43758ZM16.8774 3.32214C17.0726 3.12688 17.0726 2.8103 16.8774 2.61503C16.6821 2.41977 16.3655 2.41977 16.1703 2.61503L16.8774 3.32214ZM82.6303 6.92692L83.1301 6.91323C83.1227 6.64252 82.9011 6.42692 82.6303 6.42692C82.3595 6.42692 82.1379 6.64252 82.1305 6.91323L82.6303 6.92692ZM81.6944 10.7073L81.2918 10.4109L81.6944 10.7073ZM83.5662 10.7073L83.9688 10.4109L83.5662 10.7073ZM82.6303 15.8332L82.1305 15.8468C82.1379 16.1176 82.3595 16.3332 82.6303 16.3332C82.9011 16.3332 83.1227 16.1176 83.1301 15.8468L82.6303 15.8332ZM81.6944 12.0528L82.097 11.7563L81.6944 12.0528ZM83.5662 12.0528L83.1635 11.7563L83.5662 12.0528ZM36.6517 53.9128C36.5644 53.6508 36.2812 53.5092 36.0193 53.5965C35.7573 53.6839 35.6157 53.967 35.703 54.229L36.6517 53.9128ZM37.0703 56.7498L37.5446 56.5917L37.0703 56.7498ZM37.2534 56.7879L37.6256 57.1217L37.2534 56.7879ZM41.5973 51.9449L41.2251 51.6111L41.5973 51.9449ZM41.9795 57.9755L42.3742 58.2825L41.9795 57.9755ZM45.0735 53.9975L44.6789 53.6906V53.6906L45.0735 53.9975ZM45.2377 53.9898L45.6017 53.6471L45.2377 53.9898ZM47.4192 56.3073L47.7833 55.9646H47.7833L47.4192 56.3073ZM47.5884 56.2924L47.1701 56.0185L47.5884 56.2924ZM50.311 53.0468C50.4622 52.8158 50.3976 52.5059 50.1665 52.3546C49.9355 52.2033 49.6256 52.268 49.4743 52.499L50.311 53.0468ZM49.7759 55.4251C49.5074 55.4896 49.342 55.7595 49.4065 56.028C49.471 56.2965 49.7409 56.4619 50.0094 56.3975L49.7759 55.4251ZM52.07 55.9027C52.3385 55.8382 52.5039 55.5683 52.4394 55.2998C52.3749 55.0312 52.105 54.8658 51.8365 54.9303L52.07 55.9027ZM51.7074 55.4755L51.8241 55.9617L51.7074 55.4755ZM8.10086 65.7444C7.18226 65.7444 6.43758 64.9997 6.43758 64.0811H5.43758C5.43758 65.552 6.62997 66.7444 8.10086 66.7444V65.7444ZM16.8345 8.10691H10.8855V9.10691H16.8345V8.10691ZM10.3855 8.60691V61.1121H11.3855V8.60691H10.3855ZM18.4978 0.494629V6.44364H19.4978V0.494629H18.4978ZM13.0488 62.7754C12.1302 62.7754 11.3855 62.0307 11.3855 61.1121H10.3855C10.3855 62.583 11.5779 63.7754 13.0488 63.7754V62.7754ZM16.8345 9.10691C18.3054 9.10691 19.4978 7.91452 19.4978 6.44364H18.4978C18.4978 7.36224 17.7531 8.10691 16.8345 8.10691V9.10691ZM52.7274 54.0486C52.7428 54.5 52.8589 55.0259 53.0808 55.6444L54.0221 55.3067C53.821 54.7464 53.7375 54.3274 53.7268 54.0143L52.7274 54.0486ZM8.10086 66.7444H46.5105V65.7444H8.10086V66.7444ZM13.0488 63.7754H52.448V62.7754H13.0488V63.7754ZM5.43758 6.43213V64.0811H6.43758V6.43213H5.43758ZM11.2391 8.96046L16.8774 3.32214L16.1703 2.61503L10.5319 8.25336L11.2391 8.96046ZM82.1305 6.91323C82.1035 7.89819 82.0578 8.54182 81.9373 9.05848C81.8216 9.5548 81.6335 9.94666 81.2918 10.4109L82.097 11.0038C82.5076 10.4462 82.7605 9.93191 82.9112 9.28552C83.0571 8.65948 83.1032 7.92381 83.1301 6.9406L82.1305 6.91323ZM82.1305 6.9406C82.1574 7.92381 82.2034 8.65948 82.3494 9.28553C82.5001 9.93192 82.753 10.4462 83.1635 11.0038L83.9688 10.4109C83.627 9.94666 83.439 9.5548 83.3233 9.05848C83.2028 8.54181 83.1571 7.89819 83.1301 6.91323L82.1305 6.9406ZM83.1301 15.8195C83.1032 14.8363 83.0571 14.1006 82.9112 13.4746C82.7605 12.8282 82.5076 12.3139 82.097 11.7563L81.2918 12.3492C81.6335 12.8134 81.8216 13.2053 81.9373 13.7016C82.0578 14.2183 82.1035 14.8619 82.1305 15.8468L83.1301 15.8195ZM83.1301 15.8468C83.1571 14.8619 83.2028 14.2183 83.3233 13.7016C83.439 13.2053 83.627 12.8134 83.9688 12.3492L83.1635 11.7563C82.753 12.3139 82.5001 12.8282 82.3494 13.4746C82.2034 14.1006 82.1574 14.8363 82.1305 15.8195L83.1301 15.8468ZM83.1635 11.0038C83.3281 11.2273 83.3281 11.5328 83.1635 11.7563L83.9688 12.3492C84.393 11.773 84.393 10.987 83.9688 10.4109L83.1635 11.0038ZM81.2918 10.4109C80.8676 10.987 80.8676 11.773 81.2918 12.3492L82.097 11.7563C81.9325 11.5328 81.9325 11.2273 82.097 11.0038L81.2918 10.4109ZM35.703 54.229L36.5959 56.9079L37.5446 56.5917L36.6517 53.9128L35.703 54.229ZM37.6256 57.1217L41.9695 52.2788L41.2251 51.6111L36.8812 56.454L37.6256 57.1217ZM41.2859 52.0171V57.9091H42.2859V52.0171H41.2859ZM42.3742 58.2825L45.4682 54.3045L44.6789 53.6906L41.5848 57.6686L42.3742 58.2825ZM44.8736 54.3325L47.0551 56.65L47.7833 55.9646L45.6017 53.6471L44.8736 54.3325ZM48.0068 56.5663L50.311 53.0468L49.4743 52.499L47.1701 56.0185L48.0068 56.5663ZM47.0551 56.65C47.3248 56.9365 47.7913 56.8954 48.0068 56.5663L47.1701 56.0185C47.309 55.8065 47.6095 55.78 47.7833 55.9646L47.0551 56.65ZM45.4682 54.3045C45.3206 54.4943 45.0384 54.5076 44.8736 54.3325L45.6017 53.6471C45.3459 53.3753 44.908 53.396 44.6789 53.6906L45.4682 54.3045ZM41.2859 57.9091C41.2859 58.4882 42.0187 58.7396 42.3742 58.2825L41.5848 57.6686C41.8139 57.3741 42.2859 57.536 42.2859 57.9091H41.2859ZM41.9695 52.2788C41.7295 52.5463 41.2859 52.3766 41.2859 52.0171H42.2859C42.2859 51.4592 41.5975 51.1958 41.2251 51.6111L41.9695 52.2788ZM36.5959 56.9079C36.7435 57.3507 37.3141 57.4691 37.6256 57.1217L36.8812 56.454C37.0819 56.2302 37.4496 56.3065 37.5446 56.5917L36.5959 56.9079ZM50.0094 56.3975L51.8241 55.9617L51.5906 54.9893L49.7759 55.4251L50.0094 56.3975ZM51.8241 55.9617L52.07 55.9027L51.8365 54.9303L51.5906 54.9893L51.8241 55.9617ZM18.9978 0.494629V-0.505371H18.5836L18.2907 -0.212478L18.9978 0.494629ZM57.3959 47.6955L57.9446 48.5315C58.2263 48.3467 58.3959 48.0324 58.3959 47.6955H57.3959ZM54.0774 52.5598L54.5209 53.4561C54.8105 53.3128 55.013 53.0384 55.0646 52.7195C55.1162 52.4005 55.0105 52.0763 54.7808 51.849L54.0774 52.5598ZM53.2271 54.0314L53.8595 54.806C54.1015 54.6085 54.2372 54.3093 54.2265 53.9972L53.2271 54.0314ZM51.4584 55.4755L50.826 54.7009C50.4984 54.9684 50.3745 55.4129 50.5164 55.8112C50.6584 56.2096 51.0356 56.4755 51.4584 56.4755V55.4755ZM53.5514 55.4755L54.4927 55.1378C54.3501 54.7405 53.9735 54.4755 53.5514 54.4755V55.4755ZM57.0239 61.631L57.8532 61.0723L57.8532 61.0722L57.0239 61.631ZM46.5105 66.2444V65.2444C45.9582 65.2444 45.5105 65.6921 45.5105 66.2444H46.5105ZM52.448 63.2754V62.2754C51.8957 62.2754 51.448 62.7231 51.448 63.2754H52.448ZM5.93758 6.43213V7.43213C6.48987 7.43213 6.93758 6.98441 6.93758 6.43213H5.93758ZM16.5238 2.96859V3.96859C16.789 3.96859 17.0434 3.86323 17.2309 3.67569L16.5238 2.96859ZM57.2316 61.9406L58.1553 62.3238C58.2834 62.0151 58.2487 61.6628 58.063 61.3849L57.2316 61.9406ZM2.65815 70.2131H44.3472V68.2131H2.65815V70.2131ZM-0.505127 8.5954V67.0499H1.49487V8.5954H-0.505127ZM44.3472 70.2131C46.0942 70.2131 47.5105 68.7969 47.5105 67.0499H45.5105C45.5105 67.6923 44.9897 68.2131 44.3472 68.2131V70.2131ZM2.65815 68.2131C2.01569 68.2131 1.49487 67.6923 1.49487 67.0499H-0.505127C-0.505127 68.7969 0.911119 70.2131 2.65815 70.2131V68.2131ZM1.49487 8.5954C1.49487 7.95294 2.01569 7.43213 2.65815 7.43213V5.43213C0.911119 5.43213 -0.505127 6.84837 -0.505127 8.5954H1.49487ZM50.2847 67.2444C52.0317 67.2444 53.448 65.8281 53.448 64.0811H51.448C51.448 64.7236 50.9272 65.2444 50.2847 65.2444V67.2444ZM6.93758 5.13186C6.93758 4.4894 7.4584 3.96859 8.10086 3.96859V1.96859C6.35383 1.96859 4.93758 3.38483 4.93758 5.13186H6.93758ZM55.2326 -0.505371H18.9978V1.49463H55.2326V-0.505371ZM58.3959 2.6579C58.3959 0.91087 56.9797 -0.505371 55.2326 -0.505371V1.49463C55.8751 1.49463 56.3959 2.01544 56.3959 2.6579H58.3959ZM56.8472 46.8595C55.4692 47.764 54.2771 48.8086 53.5532 49.8186C53.1946 50.319 52.8996 50.8815 52.8086 51.4661C52.7105 52.0956 52.8551 52.7571 53.374 53.2706L54.7808 51.849C54.7712 51.8394 54.7776 51.8439 54.781 51.8554C54.7829 51.8621 54.7744 51.8403 54.7847 51.7738C54.8082 51.6231 54.9112 51.3571 55.1788 50.9837C55.7077 50.2458 56.6821 49.3602 57.9446 48.5315L56.8472 46.8595ZM53.634 51.6635C53.2736 51.8418 52.8888 52.111 52.6089 52.5438C52.3247 52.9835 52.2083 53.4995 52.2277 54.0657L54.2265 53.9972C54.2181 53.7517 54.2694 53.6593 54.2885 53.6297C54.312 53.5933 54.3662 53.5326 54.5209 53.4561L53.634 51.6635ZM52.5946 53.2568L50.826 54.7009L52.0909 56.2501L53.8595 54.806L52.5946 53.2568ZM52.6102 55.8132C53.135 57.276 54.2525 59.307 56.1945 62.1897L57.8532 61.0722C55.9316 58.2197 54.9302 56.3574 54.4927 55.1378L52.6102 55.8132ZM46.5105 67.2444H50.2847V65.2444H46.5105V67.2444ZM47.5105 67.0499V66.2444H45.5105V67.0499H47.5105ZM52.448 64.2754H55.2326V62.2754H52.448V64.2754ZM53.448 64.0811V63.2754H51.448V64.0811H53.448ZM4.93758 5.13186V6.43213H6.93758V5.13186H4.93758ZM5.93758 5.43213H2.65815V7.43213H5.93758V5.43213ZM16.5238 1.96859H8.10086V3.96859H16.5238V1.96859ZM17.2309 3.67569L19.7049 1.20174L18.2907 -0.212478L15.8167 2.26148L17.2309 3.67569ZM58.3959 47.6955V2.6579H56.3959V47.6955H58.3959ZM56.1945 62.1897C56.2639 62.2927 56.3325 62.3949 56.4002 62.4963L58.063 61.3849C57.9939 61.2815 57.924 61.1773 57.8532 61.0723L56.1945 62.1897ZM55.2326 64.2754C56.5521 64.2754 57.6806 63.4678 58.1553 62.3238L56.308 61.5573C56.1323 61.9807 55.7157 62.2754 55.2326 62.2754V64.2754ZM53.5514 54.4755H51.7074V56.4755H53.5514V54.4755ZM51.7074 54.4755H51.4584V56.4755H51.7074V54.4755Z" fill="black" fill-opacity="0.1" mask="url(#path-8-inside-1)"/>
<mask id="path-10-inside-2" fill="white">
<path d="M67.2745 74.9142C72.1852 78.1539 74.1495 78.8018 80.6971 84.3093C83.5596 86.7171 85.8355 89.17 87.4713 91.1816C88.5763 92.5404 91.0076 92.1725 91.4934 90.49L94.4249 80.3366C94.6382 79.5979 94.403 78.8064 93.8481 78.2741C91.7908 76.3004 88.59 72.7348 87.2447 69.4067C85.2804 64.5471 85.2804 52.2362 80.3697 50.2924C79.2132 49.7202 77.4594 48.9127 75.4847 48.1021L65.6376 51.731C66.1697 51.9749 66.9288 52.3822 67.6602 52.8841C68.7287 53.6174 69.738 54.5527 69.8935 55.4758C69.9403 55.7534 69.8973 56.0833 69.7877 56.4459C69.4416 57.5916 68.4305 59.0644 67.4825 60.2483C66.8381 61.0531 65.6689 61.1393 64.8855 60.469C64.4018 60.0551 63.8758 59.5912 63.3459 59.1031C62.4149 58.2454 61.4722 57.313 60.7269 56.4459C60.3347 55.9897 59.9971 55.5515 59.7447 55.1519C59.5166 54.7907 59.2631 54.4674 58.9922 54.18C58.221 53.362 57.3084 52.8355 56.4383 52.5601C55.4199 52.2378 54.4596 52.2594 53.8518 52.5601C53.3368 52.8149 52.9737 53.2201 53.0015 54.0318C53.0146 54.414 53.1144 54.8865 53.3258 55.4758C53.807 56.817 54.8664 58.7637 56.7983 61.6313C56.8683 61.7353 56.9376 61.8385 57.006 61.9409C61.4125 68.5338 62.4389 71.724 67.2745 74.9142Z"/>
<path d="M65.6376 45.1089C62.9464 44.7956 59.6427 46.073 57.1703 47.6958C54.5298 49.429 52.8374 51.5562 53.8518 52.5601C54.4596 52.2594 55.4199 52.2378 56.4383 52.5601L71.8116 46.7028C69.6063 45.9348 67.4038 45.3145 65.6376 45.1089Z"/>
<path d="M69.8935 55.4758C69.738 54.5527 68.7287 53.6174 67.6602 52.8841C65.0878 52.3657 61.9662 55.0427 60.7269 56.4459C61.4722 57.313 62.4149 58.2454 63.3459 59.1031C64.1484 57.5688 66.5603 54.8894 69.7877 56.4459C69.8973 56.0833 69.9403 55.7534 69.8935 55.4758Z"/>
</mask>
<path d="M67.2745 74.9142C72.1852 78.1539 74.1495 78.8018 80.6971 84.3093C83.5596 86.7171 85.8355 89.17 87.4713 91.1816C88.5763 92.5404 91.0076 92.1725 91.4934 90.49L94.4249 80.3366C94.6382 79.5979 94.403 78.8064 93.8481 78.2741C91.7908 76.3004 88.59 72.7348 87.2447 69.4067C85.2804 64.5471 85.2804 52.2362 80.3697 50.2924C79.2132 49.7202 77.4594 48.9127 75.4847 48.1021L65.6376 51.731C66.1697 51.9749 66.9288 52.3822 67.6602 52.8841C68.7287 53.6174 69.738 54.5527 69.8935 55.4758C69.9403 55.7534 69.8973 56.0833 69.7877 56.4459C69.4416 57.5916 68.4305 59.0644 67.4825 60.2483C66.8381 61.0531 65.6689 61.1393 64.8855 60.469C64.4018 60.0551 63.8758 59.5912 63.3459 59.1031C62.4149 58.2454 61.4722 57.313 60.7269 56.4459C60.3347 55.9897 59.9971 55.5515 59.7447 55.1519C59.5166 54.7907 59.2631 54.4674 58.9922 54.18C58.221 53.362 57.3084 52.8355 56.4383 52.5601C55.4199 52.2378 54.4596 52.2594 53.8518 52.5601C53.3368 52.8149 52.9737 53.2201 53.0015 54.0318C53.0146 54.414 53.1144 54.8865 53.3258 55.4758C53.807 56.817 54.8664 58.7637 56.7983 61.6313C56.8683 61.7353 56.9376 61.8385 57.006 61.9409C61.4125 68.5338 62.4389 71.724 67.2745 74.9142Z" fill="#FAE2E0"/>
<path d="M65.6376 45.1089C62.9464 44.7956 59.6427 46.073 57.1703 47.6958C54.5298 49.429 52.8374 51.5562 53.8518 52.5601C54.4596 52.2594 55.4199 52.2378 56.4383 52.5601L71.8116 46.7028C69.6063 45.9348 67.4038 45.3145 65.6376 45.1089Z" fill="#FAE2E0"/>
<path d="M69.8935 55.4758C69.738 54.5527 68.7287 53.6174 67.6602 52.8841C65.0878 52.3657 61.9662 55.0427 60.7269 56.4459C61.4722 57.313 62.4149 58.2454 63.3459 59.1031C64.1484 57.5688 66.5603 54.8894 69.7877 56.4459C69.8973 56.0833 69.9403 55.7534 69.8935 55.4758Z" fill="#FAE2E0"/>
<path d="M53.6301 52.112C53.3826 52.2344 53.2812 52.5343 53.4037 52.7818C53.5261 53.0293 53.8261 53.1307 54.0736 53.0082L53.6301 52.112ZM56.2874 53.0368C56.5507 53.1201 56.8316 52.9742 56.915 52.711C56.9983 52.4477 56.8524 52.1667 56.5891 52.0834L56.2874 53.0368ZM58.8193 53.7108C58.5602 53.8063 58.4275 54.0938 58.523 54.3529C58.6185 54.612 58.906 54.7446 59.1651 54.6491L58.8193 53.7108ZM65.8105 52.2001C66.0696 52.1046 66.2022 51.8172 66.1067 51.5581C66.0112 51.299 65.7238 51.1663 65.4647 51.2618L65.8105 52.2001ZM61.106 56.12C60.926 55.9106 60.6103 55.8868 60.4009 56.0668C60.1915 56.2468 60.1677 56.5625 60.3477 56.7719L61.106 56.12ZM67.9431 52.4718C67.7154 52.3156 67.4042 52.3735 67.2479 52.6012C67.0917 52.8289 67.1496 53.1401 67.3773 53.2963L67.9431 52.4718ZM69.8935 55.4758L70.3866 55.3928V55.3928L69.8935 55.4758ZM63.0071 59.4708C63.2102 59.6579 63.5265 59.6449 63.7136 59.4418C63.9007 59.2388 63.8878 58.9224 63.6847 58.7353L63.0071 59.4708ZM69.3091 56.3013C69.2292 56.5657 69.3788 56.8447 69.6431 56.9246C69.9075 57.0044 70.1865 56.8549 70.2664 56.5906L69.3091 56.3013ZM87.5765 43.6459L87.7494 44.1151L87.7494 44.1151L87.5765 43.6459ZM75.3118 47.6329C75.0527 47.7284 74.9201 48.0158 75.0156 48.275C75.1111 48.5341 75.3985 48.6667 75.6576 48.5712L75.3118 47.6329ZM71.6336 46.2356C71.3755 46.3339 71.2461 46.6228 71.3444 46.8808C71.4427 47.1389 71.7316 47.2683 71.9896 47.17L71.6336 46.2356ZM86.6092 41.0648L86.4312 40.5976V40.5976L86.6092 41.0648ZM88.3887 41.8643L88.8563 41.6872V41.6872L88.3887 41.8643ZM56.5891 52.0834C55.5 51.7387 54.395 51.7335 53.6301 52.112L54.0736 53.0082C54.5241 52.7853 55.3399 52.7369 56.2874 53.0368L56.5891 52.0834ZM65.4647 51.2618L58.8193 53.7108L59.1651 54.6491L65.8105 52.2001L65.4647 51.2618ZM67.3773 53.2963C67.8937 53.6507 68.3803 54.0437 68.7512 54.4472C69.1288 54.8579 69.3461 55.2359 69.4005 55.5589L70.3866 55.3928C70.2855 54.7926 69.9204 54.2414 69.4873 53.7704C69.0476 53.292 68.4953 52.8507 67.9431 52.4718L67.3773 53.2963ZM63.6847 58.7353C62.7607 57.8841 61.8336 56.9664 61.106 56.12L60.3477 56.7719C61.1108 57.6596 62.0692 58.6067 63.0071 59.4708L63.6847 58.7353ZM69.4005 55.5589C69.4293 55.73 69.4075 55.9757 69.3091 56.3013L70.2664 56.5906C70.3871 56.1909 70.4513 55.7768 70.3866 55.3928L69.4005 55.5589ZM87.4036 43.1768L75.3118 47.6329L75.6576 48.5712L87.7494 44.1151L87.4036 43.1768ZM71.9896 47.17L86.7873 41.532L86.4312 40.5976L71.6336 46.2356L71.9896 47.17ZM87.9212 42.0415C88.0942 42.498 87.8617 43.008 87.4036 43.1768L87.7494 44.1151C88.7291 43.7541 89.2263 42.6634 88.8563 41.6872L87.9212 42.0415ZM88.8563 41.6872C88.4882 40.7159 87.4018 40.2278 86.4312 40.5976L86.7873 41.532C87.2411 41.3591 87.7491 41.5874 87.9212 42.0415L88.8563 41.6872ZM67.2745 74.9142L66.7238 75.7489L67.2745 74.9142ZM80.6971 84.3093L80.0534 85.0746L80.6971 84.3093ZM87.4713 91.1816L86.6955 91.8125L87.4713 91.1816ZM91.4934 90.49L90.5326 90.2126V90.2126L91.4934 90.49ZM94.4249 80.3366L95.3856 80.614L94.4249 80.3366ZM93.8481 78.2741L94.5404 77.5524L94.5404 77.5524L93.8481 78.2741ZM87.2447 69.4067L88.1718 69.0319V69.0319L87.2447 69.4067ZM80.3697 50.2924L79.9262 51.1887C79.9509 51.2009 79.9761 51.2121 80.0017 51.2222L80.3697 50.2924ZM65.6376 45.1089L65.7532 44.1156H65.7532L65.6376 45.1089ZM57.1703 47.6958L57.719 48.5318L57.719 48.5318L57.1703 47.6958ZM53.8518 52.5601L54.2953 53.4564C54.5849 53.3131 54.7874 53.0387 54.839 52.7198C54.8906 52.4008 54.7849 52.0766 54.5552 51.8493L53.8518 52.5601ZM56.4383 52.5601L56.0822 51.6256C55.6847 51.7771 55.4265 52.1636 55.4387 52.5889C55.4509 53.0141 55.7309 53.3851 56.1365 53.5135L56.4383 52.5601ZM59.7447 55.1519L60.5902 54.6179L60.5902 54.6179L59.7447 55.1519ZM58.9922 54.18L58.2645 54.8659L58.2645 54.866L58.9922 54.18ZM65.6376 51.731L65.2918 50.7927C64.9119 50.9327 64.6539 51.288 64.6383 51.6926C64.6228 52.0972 64.8528 52.4713 65.2208 52.64L65.6376 51.731ZM60.7269 56.4459L59.9685 57.0978C60.157 57.317 60.4311 57.444 60.7202 57.4459C61.0093 57.4479 61.285 57.3246 61.4764 57.1079L60.7269 56.4459ZM67.6602 52.8841L67.4627 53.8644C67.9285 53.9583 68.3961 53.7113 68.5812 53.2736C68.7663 52.836 68.6179 52.3284 68.226 52.0596L67.6602 52.8841ZM64.8855 60.469L64.2354 61.2288H64.2354L64.8855 60.469ZM63.3459 59.1031L62.4598 58.6396C62.2501 59.0404 62.3357 59.5321 62.6684 59.8385L63.3459 59.1031ZM69.7877 56.4459L70.745 56.7352C70.8874 56.2639 70.6656 55.7591 70.2221 55.5452L69.7877 56.4459ZM67.4825 60.2483L66.7019 59.6233L66.7019 59.6233L67.4825 60.2483ZM75.4847 48.1021L75.8645 47.177C75.6328 47.0819 75.3739 47.0772 75.1389 47.1637L75.4847 48.1021ZM71.8116 46.7028L72.1676 47.6373C72.5603 47.4876 72.8176 47.1085 72.8115 46.6883C72.8054 46.2682 72.5373 45.8966 72.1405 45.7584L71.8116 46.7028ZM53.0015 54.0318L52.0021 54.066L52.0021 54.066L53.0015 54.0318ZM53.3258 55.4758L52.3846 55.8136L52.3846 55.8136L53.3258 55.4758ZM56.7983 61.6313L57.6276 61.0726L57.6276 61.0726L56.7983 61.6313ZM57.006 61.9409L57.8374 61.3852L57.8374 61.3852L57.006 61.9409ZM66.7238 75.7489C71.7104 79.0386 73.5649 79.6168 80.0534 85.0746L81.3408 83.544C74.7341 77.9868 72.66 77.2691 67.8252 74.0794L66.7238 75.7489ZM80.0534 85.0746C82.8611 87.4362 85.0935 89.8426 86.6955 91.8125L88.2472 90.5507C86.5774 88.4974 84.2581 85.9979 81.3408 83.544L80.0534 85.0746ZM92.4541 90.7674L95.3856 80.614L93.4641 80.0592L90.5326 90.2126L92.4541 90.7674ZM94.5404 77.5524C92.5015 75.5965 89.4334 72.153 88.1718 69.0319L86.3176 69.7814C87.7466 73.3166 91.08 77.0043 93.1558 78.9957L94.5404 77.5524ZM88.1718 69.0319C87.7229 67.9212 87.3694 66.3333 87.015 64.4576C86.6684 62.6234 86.3225 60.5239 85.889 58.5424C85.4547 56.5573 84.9134 54.5932 84.141 52.9831C83.3753 51.3871 82.3086 49.9844 80.7378 49.3626L80.0017 51.2222C80.8861 51.5723 81.661 52.4375 82.3378 53.8482C83.0079 55.245 83.5102 57.0269 83.9352 58.9699C84.3611 60.9165 84.6905 62.9274 85.0498 64.829C85.4013 66.689 85.7844 68.4624 86.3176 69.7814L88.1718 69.0319ZM65.7532 44.1156C62.7236 43.7629 59.178 45.1819 56.6216 46.8598L57.719 48.5318C60.1074 46.9642 63.1691 45.8283 65.5219 46.1022L65.7532 44.1156ZM56.6216 46.8598C55.2436 47.7643 54.0515 48.8089 53.3276 49.8189C52.969 50.3194 52.674 50.8818 52.583 51.4664C52.4849 52.0959 52.6295 52.7574 53.1484 53.2709L54.5552 51.8493C54.5456 51.8397 54.552 51.8442 54.5554 51.8557C54.5573 51.8624 54.5488 51.8406 54.5591 51.7741C54.5826 51.6234 54.6856 51.3575 54.9532 50.984C55.4821 50.2462 56.4565 49.3605 57.719 48.5318L56.6216 46.8598ZM60.5902 54.6179C60.3273 54.2016 60.0342 53.8274 59.7198 53.494L58.2645 54.866C58.4921 55.1073 58.706 55.3799 58.8992 55.6859L60.5902 54.6179ZM59.7198 53.494C58.8259 52.5458 57.7643 51.9309 56.74 51.6067L56.1365 53.5135C56.8526 53.7401 57.6161 54.1781 58.2645 54.8659L59.7198 53.494ZM61.4852 55.7941C61.1111 55.3589 60.8072 54.9615 60.5902 54.6179L58.8992 55.6859C59.187 56.1415 59.5582 56.6204 59.9685 57.0978L61.4852 55.7941ZM65.2208 52.64C65.7065 52.8626 66.415 53.2424 67.0944 53.7086L68.226 52.0596C67.4427 51.522 66.6329 51.0872 66.0543 50.8219L65.2208 52.64ZM61.4764 57.1079C62.0441 56.4651 63.0616 55.5134 64.2209 54.7941C65.4144 54.0536 66.5591 53.6823 67.4627 53.8644L67.8577 51.9038C66.189 51.5675 64.4866 52.2755 63.1664 53.0947C61.8119 53.9351 60.6489 55.0235 59.9773 55.784L61.4764 57.1079ZM65.5357 59.7092C65.06 59.3022 64.5432 58.8464 64.0235 58.3676L62.6684 59.8385C63.2083 60.336 63.7436 60.808 64.2354 61.2288L65.5357 59.7092ZM68.8305 56.1567C68.5454 57.1002 67.6483 58.4413 66.7019 59.6233L68.2631 60.8734C69.2126 59.6875 70.3377 58.0831 70.745 56.7352L68.8305 56.1567ZM64.232 59.5665C64.5712 58.9181 65.2614 58.0218 66.1737 57.4719C67.0376 56.9512 68.0893 56.7371 69.3534 57.3467L70.2221 55.5452C68.2587 54.5983 66.4907 54.9456 65.1412 55.759C63.8401 56.5433 62.9231 57.7538 62.4598 58.6396L64.232 59.5665ZM75.1389 47.1637L65.2918 50.7927L65.9834 52.6693L75.8305 49.0404L75.1389 47.1637ZM80.8132 49.3961C79.6353 48.8133 77.8603 47.9963 75.8645 47.177L75.1049 49.0271C77.0585 49.8292 78.791 50.627 79.9262 51.1887L80.8132 49.3961ZM72.1405 45.7584C69.914 44.9831 67.6294 44.334 65.7532 44.1156L65.5219 46.1022C67.1782 46.295 69.2985 46.8865 71.4827 47.6472L72.1405 45.7584ZM56.7943 53.4946L72.1676 47.6373L71.4556 45.7683L56.0822 51.6256L56.7943 53.4946ZM53.4084 51.6638C53.048 51.8421 52.6632 52.1114 52.3833 52.5442C52.0991 52.9838 51.9827 53.4998 52.0021 54.066L54.0009 53.9975C53.9925 53.752 54.0438 53.6596 54.0629 53.6301C54.0864 53.5937 54.1406 53.5329 54.2953 53.4564L53.4084 51.6638ZM52.0021 54.066C52.0199 54.5867 52.1523 55.166 52.3846 55.8136L54.2671 55.1381C54.0765 54.6069 54.0093 54.2414 54.0009 53.9975L52.0021 54.066ZM52.3846 55.8136C52.9094 57.2763 54.0269 59.3073 55.9689 62.19L57.6276 61.0726C55.706 58.2201 54.7046 56.3577 54.2671 55.1381L52.3846 55.8136ZM95.3856 80.614C95.7082 79.4967 95.3468 78.326 94.5404 77.5524L93.1558 78.9957C93.4592 79.2867 93.5681 79.6992 93.4641 80.0592L95.3856 80.614ZM86.6955 91.8125C87.5125 92.8173 88.7805 93.143 89.8765 92.9631C90.9776 92.7823 92.0818 92.0568 92.4541 90.7674L90.5326 90.2126C90.4191 90.6057 90.0648 90.9054 89.5525 90.9895C89.0352 91.0744 88.5351 90.9047 88.2472 90.5507L86.6955 91.8125ZM64.2354 61.2288C65.4295 62.2506 67.2505 62.138 68.2631 60.8734L66.7019 59.6233C66.4257 59.9682 65.9082 60.0279 65.5357 59.7092L64.2354 61.2288ZM55.9689 62.19C56.0383 62.293 56.1069 62.3952 56.1746 62.4966L57.8374 61.3852C57.7683 61.2818 57.6984 61.1776 57.6276 61.0726L55.9689 62.19ZM56.1746 62.4966C57.2657 64.1291 58.1481 65.5515 58.9396 66.8278C59.7275 68.0981 60.435 69.2394 61.1596 70.2764C62.6303 72.3809 64.1825 74.0723 66.7238 75.7489L67.8252 74.0794C65.5308 72.5658 64.1521 71.0671 62.799 69.1308C62.1118 68.1473 61.4343 67.0555 60.6393 65.7737C59.848 64.4978 58.9495 63.0491 57.8374 61.3852L56.1746 62.4966Z" fill="black" fill-opacity="0.1" mask="url(#path-10-inside-2)"/>
<path d="M17.3752 20.5508H51.9876" stroke="#9ECACB" stroke-width="2.18605" stroke-linecap="round" stroke-linejoin="round"/>
<path d="M17.3752 29.2041H51.9876" stroke="#9ECACB" stroke-width="2.18605" stroke-linecap="round" stroke-linejoin="round"/>
<path d="M17.3752 37.8574H51.9876" stroke="#9ECACB" stroke-width="2.18605" stroke-linecap="round" stroke-linejoin="round"/>
<path d="M17.3752 24.8779H51.9876" stroke="#9ECACB" stroke-width="2.18605" stroke-linecap="round" stroke-linejoin="round"/>
<path d="M17.3752 33.5308H51.9876" stroke="#9ECACB" stroke-width="2.18605" stroke-linecap="round" stroke-linejoin="round"/>
<path d="M17.3752 42.1841H51.9876" stroke="#9ECACB" stroke-width="2.18605" stroke-linecap="round" stroke-linejoin="round"/>
<path d="M72.81 22.5875C75.1982 19.7099 75.562 18.0166 75.703 12.8643C75.8441 18.0166 76.2079 19.7099 78.596 22.5875C78.9165 22.9736 78.9165 23.5362 78.596 23.9223C76.2079 26.7998 75.8441 28.4931 75.703 33.6455C75.562 28.4931 75.1982 26.7998 72.81 23.9223C72.4896 23.5362 72.4896 22.9736 72.81 22.5875Z" fill="#9ECACB" stroke="#9ECACB" stroke-linecap="round" stroke-linejoin="round"/>
<path d="M56.6638 52.5601C57.179 52.7232 57.7091 52.9742 58.2159 53.3217C58.8769 53.775 59.7058 54.0001 60.4579 53.7229L65.8631 51.731L75.7103 48.1021L87.8021 43.6459C88.5209 43.381 88.8858 42.5807 88.6143 41.8643C88.3442 41.1516 87.547 40.7935 86.8348 41.0648L72.0372 46.7028L56.6638 52.5601Z" fill="#3064C0"/>
<path d="M54.0774 52.5601C54.6851 52.2594 55.6455 52.2378 56.6638 52.5601M56.6638 52.5601C57.179 52.7232 57.7091 52.9742 58.2159 53.3217C58.8769 53.775 59.7058 54.0001 60.4579 53.7229L65.8631 51.731L75.7103 48.1021L87.8021 43.6459C88.5209 43.381 88.8858 42.5807 88.6143 41.8643C88.3442 41.1516 87.547 40.7935 86.8348 41.0648L72.0372 46.7028L56.6638 52.5601Z" stroke="black" stroke-opacity="0.1" stroke-linecap="round" stroke-linejoin="round"/>
</svg>
