<svg width="176" height="166" viewBox="0 0 176 166" fill="none" xmlns="http://www.w3.org/2000/svg">
<path d="M7.72006 124.918C9.06984 124.088 10.6274 123.658 12.2117 123.679C14.7179 123.679 16.8103 124.658 18.489 126.616L20.5577 124.385C19.5767 123.14 18.309 122.15 16.8626 121.501C14.1615 120.281 11.0962 120.14 8.29473 121.108C5.49326 122.075 3.16774 124.077 1.79465 126.703C0.789041 128.721 0.265625 130.945 0.265625 133.2C0.265625 135.454 0.789041 137.678 1.79465 139.696C2.76369 141.558 4.22307 143.12 6.0152 144.213C7.83329 145.318 9.92543 145.888 12.0524 145.859C13.7038 145.878 15.3398 145.54 16.8484 144.867C18.299 144.211 19.571 143.216 20.5577 141.966L18.489 139.736C16.7881 141.719 14.6957 142.71 12.2117 142.708C10.6274 142.729 9.06984 142.299 7.72006 141.469C6.37957 140.643 5.29408 139.461 4.58378 138.055C3.83908 136.541 3.45182 134.875 3.45182 133.188C3.45182 131.5 3.83908 129.835 4.58378 128.32C5.29587 126.919 6.38121 125.741 7.72006 124.918Z" fill="#ffffff"/>
<path d="M28.011 123.891H35.6246V145.588H38.7467V123.891H46.3936V120.812H28.011V123.891Z" fill="#ffffff"/>
<path d="M72.1648 123.111C70.5146 121.575 68.2422 120.807 65.3477 120.807H56.6521V145.583H59.8384V138.079H65.3477C68.2359 138.079 70.5082 137.312 72.1648 135.78C73.8213 134.247 74.6495 132.134 74.6495 129.443C74.6495 126.757 73.8213 124.647 72.1648 123.111ZM69.8726 133.573C68.8089 134.524 67.2689 135 65.2526 135H59.8384V123.898H65.2526C67.2721 123.898 68.8121 124.373 69.8726 125.324C70.9331 126.276 71.4641 127.65 71.4657 129.448C71.4657 131.24 70.9347 132.615 69.8726 133.571V133.573Z" fill="#ffffff"/>
<path d="M104.726 145.588V120.812H101.794L88.6043 139.924V120.812H85.4514V145.588H88.3831L101.604 126.509V145.588H104.726Z" fill="#ffffff"/>
<path d="M139.384 132.777L146.201 120.812H142.794L136.804 131.571H132.536V120.812H129.414V131.571H125.081L119.123 120.812H115.715L122.532 132.705L115.173 145.588H118.902L125.146 134.686H129.414V145.588H132.536V134.686H136.773L143.017 145.588H146.743L139.384 132.777Z" fill="#ffffff"/>
<path d="M172.8 120.812L159.613 139.924V120.812H156.457V145.588H159.389L172.61 126.509V145.588H175.732V120.812H172.8Z" fill="#ffffff"/>
<path d="M25.043 160.846C24.7419 160.844 24.4424 160.89 24.1561 160.984C23.8948 161.067 23.6525 161.202 23.4427 161.378L23.6805 161.775C23.855 161.626 24.0558 161.51 24.2726 161.433C24.5017 161.352 24.7429 161.31 24.9859 161.309C25.2879 161.289 25.5864 161.384 25.8205 161.576C25.9201 161.678 25.9969 161.8 26.0461 161.934C26.0953 162.068 26.1156 162.211 26.1059 162.353V162.591H24.8528C24.3217 162.591 23.9349 162.693 23.6924 162.898C23.5758 163.001 23.483 163.129 23.4202 163.272C23.3575 163.415 23.3263 163.569 23.3288 163.725C23.3312 163.881 23.3673 164.035 23.4346 164.176C23.5019 164.316 23.5987 164.441 23.7185 164.541C24.0212 164.766 24.393 164.878 24.7695 164.857C25.0559 164.865 25.3401 164.805 25.5994 164.683C25.8197 164.582 26.0039 164.417 26.1273 164.208V164.824H26.6528V162.377C26.6681 162.168 26.6391 161.958 26.5678 161.761C26.4965 161.564 26.3845 161.384 26.239 161.233C25.9063 160.953 25.477 160.814 25.043 160.846ZM26.1082 163.637C26.0169 163.881 25.8503 164.089 25.6327 164.232C25.4006 164.374 25.1321 164.446 24.8599 164.439C24.5994 164.454 24.3408 164.385 24.1228 164.241C24.0383 164.178 23.9704 164.096 23.9248 164.001C23.8792 163.906 23.8574 163.802 23.8612 163.697C23.8612 163.221 24.1989 162.983 24.8742 162.983H26.113L26.1082 163.637Z" fill="#ffffff"/>
<path d="M29.5591 164.822H30.0917V161.348H32.3506V160.875H29.5591V164.822Z" fill="#ffffff"/>
<path d="M36.9746 161.101C36.6756 160.928 36.3353 160.84 35.9902 160.846C35.6443 160.841 35.3034 160.929 35.0034 161.101C34.7111 161.269 34.4721 161.516 34.3139 161.814C34.1422 162.131 34.0554 162.488 34.0618 162.848C34.0561 163.211 34.1472 163.569 34.3258 163.885C34.4976 164.186 34.7505 164.434 35.0557 164.598C35.3866 164.776 35.7575 164.865 36.1329 164.858C36.4302 164.861 36.7252 164.805 37.0007 164.694C37.254 164.589 37.479 164.426 37.657 164.218L37.3526 163.868C37.2067 164.036 37.0246 164.169 36.82 164.256C36.6054 164.345 36.3748 164.39 36.1424 164.387C35.7478 164.401 35.3623 164.266 35.0629 164.009C34.9217 163.883 34.8069 163.73 34.7253 163.56C34.6436 163.389 34.5967 163.204 34.5873 163.015H37.89V162.848C37.8997 162.488 37.8179 162.13 37.6523 161.809C37.4958 161.515 37.2613 161.27 36.9746 161.101ZM34.5968 162.615C34.6175 162.254 34.7747 161.914 35.0367 161.664C35.2934 161.422 35.6352 161.292 35.9878 161.3C36.3449 161.29 36.6918 161.421 36.9532 161.664C37.2143 161.914 37.3706 162.254 37.3907 162.615H34.5968Z" fill="#ffffff"/>
<path d="M43.5983 162.625H41.1159V160.875H40.5833V164.822H41.1159V163.082H43.5983V164.822H44.1333V160.875H43.5983V162.625Z" fill="#ffffff"/>
<path d="M46.4071 161.348H47.9004V164.822H48.433V161.348H49.9262V160.875H46.4071V161.348Z" fill="#ffffff"/>
<path d="M52.9014 161.503C53.137 161.372 53.4026 161.306 53.6718 161.31C53.8974 161.308 54.1204 161.359 54.3233 161.457C54.5257 161.555 54.6975 161.707 54.8203 161.895L55.2174 161.626C55.0665 161.375 54.846 161.172 54.5825 161.044C54.2986 160.908 53.9866 160.84 53.6718 160.846C53.3069 160.839 52.9465 160.927 52.6256 161.101C52.3215 161.265 52.0701 161.513 51.9004 161.814C51.7224 162.129 51.6321 162.487 51.6388 162.848C51.6324 163.212 51.7227 163.57 51.9004 163.888C52.0706 164.189 52.3219 164.436 52.6256 164.601C52.9469 164.773 53.3071 164.861 53.6718 164.855C53.986 164.86 54.2969 164.792 54.5801 164.656C54.8446 164.529 55.0661 164.327 55.2174 164.075L54.8203 163.804C54.6981 163.993 54.526 164.143 54.3233 164.239C54.1197 164.336 53.897 164.384 53.6718 164.382C53.4029 164.386 53.1376 164.32 52.9014 164.192C52.6764 164.065 52.4918 163.877 52.3688 163.65C52.2437 163.4 52.1786 163.125 52.1786 162.846C52.1786 162.567 52.2437 162.292 52.3688 162.042C52.4911 161.815 52.676 161.628 52.9014 161.503Z" fill="#ffffff"/>
<path d="M56.9286 161.348H58.4218V164.822H58.9544V161.348H60.4477V160.875H56.9286V161.348Z" fill="#ffffff"/>
<path d="M65.2348 162.782C65.4288 162.718 65.5999 162.599 65.727 162.439C65.8462 162.281 65.9082 162.086 65.903 161.888C65.91 161.74 65.8783 161.594 65.8112 161.462C65.744 161.331 65.6437 161.219 65.5201 161.139C65.2023 160.946 64.8333 160.854 64.4621 160.875H62.7216V164.822H64.5144C64.9144 164.85 65.3133 164.753 65.6557 164.544C65.8059 164.426 65.9192 164.268 65.9822 164.088C66.0451 163.908 66.055 163.713 66.0106 163.528C65.9663 163.342 65.8696 163.173 65.7321 163.041C65.5946 162.909 65.422 162.819 65.2348 162.782ZM63.2399 161.296H64.4288C64.6775 161.279 64.9257 161.336 65.1421 161.46C65.2209 161.515 65.2842 161.59 65.3258 161.677C65.3675 161.764 65.3861 161.86 65.3799 161.957C65.3855 162.054 65.3667 162.15 65.3252 162.238C65.2836 162.326 65.2207 162.402 65.1421 162.458C64.9282 162.589 64.6788 162.65 64.4288 162.632H63.2399V161.296ZM65.2586 164.237C65.0239 164.363 64.7587 164.421 64.493 164.403H63.2399V163.029H64.5453C64.8016 163.01 65.0578 163.069 65.28 163.198C65.3599 163.258 65.4236 163.337 65.4651 163.428C65.5066 163.519 65.5247 163.619 65.5178 163.719C65.5243 163.82 65.5037 163.922 65.4582 164.013C65.4127 164.104 65.3438 164.181 65.2586 164.237Z" fill="#ffffff"/>
<path d="M71.4414 161.1C71.1247 160.933 70.7721 160.846 70.4142 160.846C70.0562 160.846 69.7036 160.933 69.387 161.1C69.0868 161.266 68.8396 161.514 68.6736 161.814C68.5005 162.131 68.4098 162.487 68.4098 162.849C68.4098 163.211 68.5005 163.567 68.6736 163.885C68.8412 164.184 69.0881 164.43 69.387 164.598C69.7026 164.768 70.0556 164.857 70.4142 164.857C70.7727 164.857 71.1257 164.768 71.4414 164.598C71.7405 164.431 71.9874 164.184 72.1547 163.885C72.3248 163.566 72.4137 163.21 72.4137 162.849C72.4137 162.488 72.3248 162.132 72.1547 161.814C71.989 161.513 71.7417 161.266 71.4414 161.1ZM71.6791 163.652C71.5604 163.879 71.3789 164.068 71.156 164.196C70.9244 164.321 70.6654 164.386 70.4023 164.386C70.1392 164.386 69.8801 164.321 69.6485 164.196C69.425 164.069 69.2426 163.88 69.123 163.652C68.9965 163.403 68.9305 163.128 68.9305 162.849C68.9305 162.57 68.9965 162.295 69.123 162.047C69.242 161.818 69.4245 161.629 69.6485 161.502C69.8797 161.376 70.1389 161.31 70.4023 161.31C70.6657 161.31 70.9249 161.376 71.156 161.502C71.3794 161.629 71.5611 161.818 71.6791 162.047C71.8012 162.297 71.8647 162.571 71.8647 162.849C71.8647 163.127 71.8012 163.402 71.6791 163.652Z" fill="#ffffff"/>
<path d="M81.5403 162.625H79.0579V160.875H78.5229V164.822H79.0579V163.082H81.5403V164.822H82.0729V160.875H81.5403V162.625Z" fill="#ffffff"/>
<path d="M87.6211 161.101C87.3221 160.928 86.9818 160.84 86.6367 160.846C86.2908 160.841 85.9498 160.929 85.6499 161.101C85.3576 161.269 85.1186 161.516 84.9603 161.814C84.7886 162.131 84.7018 162.488 84.7082 162.848C84.7025 163.211 84.7937 163.569 84.9722 163.885C85.144 164.186 85.3969 164.434 85.7022 164.598C86.033 164.776 86.404 164.865 86.7793 164.858C87.0766 164.861 87.3717 164.805 87.6472 164.694C87.9005 164.589 88.1255 164.426 88.3035 164.218L87.9991 163.868C87.8532 164.036 87.6711 164.169 87.4665 164.256C87.2519 164.345 87.0213 164.39 86.7888 164.387C86.3942 164.401 86.0088 164.266 85.7093 164.009C85.5681 163.883 85.4533 163.73 85.3717 163.56C85.2901 163.389 85.2432 163.204 85.2337 163.015H88.5365V162.848C88.5462 162.488 88.4644 162.13 88.2987 161.809C88.1423 161.515 87.9078 161.27 87.6211 161.101ZM85.2432 162.615C85.2639 162.254 85.4212 161.914 85.6832 161.664C85.9399 161.422 86.2817 161.292 86.6343 161.3C86.9914 161.29 87.3383 161.421 87.5997 161.664C87.8608 161.914 88.0171 162.254 88.0372 162.615H85.2432Z" fill="#ffffff"/>
<path d="M94.381 160.875H91.4707L91.4184 162.197C91.4009 162.727 91.3357 163.254 91.2234 163.771C91.1283 164.147 90.9476 164.342 90.6813 164.359H90.4578V165.785H90.9595V164.834H94.4951V165.785H94.9968V164.359H94.381V160.875ZM93.8484 164.359H91.3875C91.5989 164.163 91.7324 163.898 91.7632 163.612C91.8422 163.154 91.8898 162.691 91.9058 162.226L91.951 161.348H93.8531L93.8484 164.359Z" fill="#ffffff"/>
<path d="M100.047 162.781C100.241 162.716 100.411 162.598 100.54 162.439C100.659 162.28 100.721 162.086 100.715 161.887C100.722 161.74 100.69 161.594 100.623 161.462C100.556 161.331 100.456 161.219 100.333 161.138C100.015 160.946 99.6459 160.854 99.2746 160.874H97.5342V164.822H99.3269C99.727 164.849 100.126 164.752 100.468 164.543C100.618 164.426 100.732 164.267 100.795 164.087C100.858 163.907 100.868 163.713 100.823 163.527C100.779 163.342 100.682 163.173 100.545 163.041C100.407 162.908 100.235 162.818 100.047 162.781ZM98.0525 161.295H99.2413C99.4902 161.277 99.7386 161.335 99.9547 161.459C100.034 161.515 100.097 161.589 100.139 161.676C100.181 161.764 100.199 161.86 100.192 161.956C100.199 162.053 100.18 162.15 100.138 162.238C100.097 162.326 100.034 162.401 99.9547 162.458C99.7411 162.59 99.4915 162.65 99.2413 162.632H98.0525V161.295ZM100.071 164.237C99.8365 164.362 99.5713 164.42 99.3055 164.403H98.0525V163.029H99.3578C99.6142 163.009 99.8704 163.068 100.093 163.197C100.172 163.258 100.236 163.337 100.278 163.428C100.319 163.519 100.337 163.618 100.33 163.718C100.337 163.82 100.316 163.921 100.271 164.012C100.225 164.103 100.156 164.181 100.071 164.237Z" fill="#ffffff"/>
<path d="M104.13 164.011V160.875H103.598V164.822H104.078L106.703 161.686V164.822H107.238V160.875H106.765L104.13 164.011Z" fill="#ffffff"/>
<path d="M115.461 160.875H114.881L113.718 162.609H112.865V160.875H112.332V162.609H111.476L110.321 160.875H109.743L111.048 162.789L109.629 164.822H110.266L111.476 163.067H112.332V164.822H112.865V163.067H113.718L114.933 164.822H115.573L114.154 162.796L115.461 160.875Z" fill="#ffffff"/>
<path d="M118.491 164.011V160.875H117.959V164.822H118.439L121.067 161.686V164.822H121.599V160.875H121.126L118.491 164.011Z" fill="#ffffff"/>
<path d="M126.838 163.719L125.164 160.875H124.624V164.822H125.112V161.693L126.71 164.342H126.95L128.55 161.7V164.822H129.037V160.875H128.543L126.838 163.719Z" fill="#ffffff"/>
<path d="M134.711 161.1C134.394 160.933 134.041 160.846 133.683 160.846C133.324 160.846 132.971 160.933 132.654 161.1C132.355 161.268 132.108 161.515 131.941 161.814C131.768 162.131 131.677 162.487 131.677 162.849C131.677 163.211 131.768 163.567 131.941 163.885C132.11 164.182 132.357 164.429 132.654 164.598C132.97 164.768 133.324 164.857 133.683 164.857C134.042 164.857 134.395 164.768 134.711 164.598C135.01 164.43 135.257 164.184 135.424 163.885C135.594 163.566 135.683 163.21 135.683 162.849C135.683 162.488 135.594 162.132 135.424 161.814C135.258 161.514 135.011 161.266 134.711 161.1ZM134.949 163.652C134.83 163.879 134.65 164.068 134.428 164.196C134.196 164.321 133.937 164.386 133.673 164.386C133.41 164.386 133.15 164.321 132.918 164.196C132.695 164.068 132.513 163.879 132.393 163.652C132.268 163.403 132.203 163.128 132.203 162.849C132.203 162.571 132.268 162.296 132.393 162.047C132.512 161.819 132.695 161.63 132.918 161.502C133.15 161.376 133.409 161.31 133.673 161.31C133.937 161.31 134.197 161.376 134.428 161.502C134.65 161.63 134.831 161.819 134.949 162.047C135.073 162.296 135.137 162.571 135.137 162.849C135.137 163.128 135.073 163.402 134.949 163.652Z" fill="#ffffff"/>
<path d="M139.209 161.503C139.443 161.372 139.708 161.306 139.977 161.31C140.203 161.308 140.427 161.359 140.631 161.457C140.832 161.556 141.003 161.707 141.125 161.895L141.522 161.626C141.372 161.375 141.152 161.173 140.89 161.044C140.605 160.908 140.292 160.84 139.977 160.846C139.612 160.839 139.251 160.927 138.93 161.101C138.631 161.267 138.384 161.514 138.217 161.814C138.04 162.13 137.95 162.487 137.956 162.848C137.95 163.212 138.04 163.57 138.217 163.888C138.384 164.187 138.631 164.434 138.93 164.601C139.252 164.773 139.612 164.861 139.977 164.855C140.291 164.86 140.602 164.792 140.885 164.656C141.15 164.529 141.372 164.327 141.522 164.075L141.125 163.804C141.003 163.992 140.832 164.142 140.631 164.239C140.426 164.336 140.203 164.384 139.977 164.382C139.709 164.386 139.444 164.321 139.209 164.192C138.983 164.066 138.798 163.878 138.676 163.65C138.549 163.401 138.484 163.125 138.484 162.846C138.484 162.567 138.549 162.291 138.676 162.042C138.797 161.814 138.982 161.627 139.209 161.503Z" fill="#ffffff"/>
<path d="M143.233 161.348H144.727V164.822H145.259V161.348H146.752V160.875H143.233V161.348Z" fill="#ffffff"/>
<path d="M149.559 164.011V160.875H149.026V164.822H149.507L152.134 161.686V164.822H152.667V160.875H152.193L149.559 164.011Z" fill="#ffffff"/>
<path d="M116.532 41.9551C110.029 46.9936 103.285 47.2171 103.285 47.2171C109.158 45.8849 114.361 42.4993 117.959 37.6703C118.993 33.4094 119.209 28.2567 118.31 21.9604L115.414 19.5136V28.913C114.563 30.2208 113.596 31.4488 112.523 32.5819V16.7673L109.636 14.6844V35.2474C108.708 35.9982 107.741 36.6991 106.738 37.347V11.9475L103.846 9.8646V39.0352C101.979 40.0159 100.046 40.8668 98.0613 41.5818V24.1931L95.1699 26.276V42.5377C94.8893 42.6209 94.6064 42.7065 94.3187 42.7754C93.6481 42.9657 92.9633 43.1797 92.269 43.4127V28.359L95.1628 26.276V2.30565L92.2785 0.225098V28.359L89.3776 30.4514V44.5064C88.4265 44.894 87.4516 45.3173 86.4839 45.7762V32.3084L83.5925 34.3914V47.2314C83.1431 47.4692 82.6961 47.7307 82.2514 47.9923C80.2898 44.4256 77.805 41.5604 72.5905 40.5831C67.6376 39.6534 63.4456 43.4769 62.0403 44.9558C61.4448 44.7895 60.8301 44.7015 60.2118 44.6943L57.1207 44.7395L59.5769 46.6203C59.9954 46.9389 61.2414 48.047 61.5172 48.9481C61.5172 48.9481 63.6572 56.0244 62.504 60.6682L62.4374 60.9321C61.1558 66.0491 59.4081 73.0422 66.5914 84.0655C67.0289 85.0404 67.5282 86.0272 68.0989 87.0259C68.1468 85.7672 68.2707 84.5127 68.4698 83.269L68.5768 83.1976C68.5507 83.1548 68.5245 83.1168 68.4984 83.0764C69.3068 77.9309 71.7369 69.0475 79.0414 64.387C84.9859 60.5826 95.6859 59.087 104.484 54.3338C98.3371 55.002 93.8978 53.2638 93.8978 53.2638C99.0467 54.2234 104.367 53.5518 109.116 51.3426C112.347 48.8961 114.9 45.6648 116.532 41.9551ZM64.2517 74.2929C62.6752 68.8573 63.6667 64.8792 64.5227 61.4695L64.5893 61.2032C65.8923 55.9864 64.2612 50.3629 63.6382 48.5439C63.4718 48.0586 63.2559 47.5916 62.9938 47.1505C62.9938 47.1505 67.4569 41.8172 72.2077 42.7065C76.6019 43.5316 78.6943 45.9402 80.4372 49.1265C71.5229 54.8379 63.9592 63.5192 64.2422 74.2834L64.2517 74.2929Z" fill="#ffffff"/>
<path d="M100.953 7.12539L98.0619 5.04483L98.0613 24.1931L100.953 22.1101V7.12539Z" fill="#ffffff"/>
</svg>
