<svg width="24" height="36" viewBox="0 0 24 36" fill="none" xmlns="http://www.w3.org/2000/svg">
<path d="M23.0873 17.3078C20.5596 19.3979 17.938 19.49 17.938 19.49C20.7903 18.7833 22.585 17.03 23.6437 15.5309C24.046 13.7642 24.1298 11.6267 23.7806 9.01619L22.657 7.99593V11.8934C22.3261 12.4359 21.9497 12.9453 21.5325 13.4153V6.8622L20.4084 5.99873V14.5262C20.0488 14.837 19.6739 15.1271 19.2852 15.3951V4.86322L18.1612 3.99975V16.0973C17.4352 16.5044 16.6836 16.8572 15.9118 17.1533V9.94175L14.7877 10.8052V17.5504C14.6789 17.5852 14.5692 17.6201 14.4574 17.654C14.1966 17.7331 13.9304 17.822 13.662 17.9185V11.6691L14.7861 10.8061V0.865258L13.6607 0V11.6691L12.5367 12.5326V18.3616C12.1641 18.5224 11.7894 18.6978 11.4126 18.8878V13.3076L10.2882 14.1711V19.5016C10.114 19.6034 9.94026 19.7077 9.76694 19.8143C9.00418 18.333 8.03879 17.147 6.01213 16.7414C4.08637 16.3559 2.45827 17.9422 1.91152 18.5555C1.67984 18.4859 1.4405 18.4495 1.19983 18.4474L0 18.4657L0.953252 19.2434C1.11527 19.3774 1.60257 19.8375 1.70681 20.2087C1.70681 20.2087 2.54158 23.1435 2.09028 25.0692L2.06474 25.1791C1.56614 27.301 0.88752 30.2009 3.67945 34.7729C3.84942 35.1749 4.04325 35.5859 4.26555 36C4.28404 35.478 4.33199 34.9577 4.40915 34.4419L4.45101 34.412C4.44054 34.3955 4.43092 34.3789 4.42087 34.3619C4.73443 32.2285 5.67932 28.5437 8.51814 26.6113C10.8286 25.0384 14.9845 24.4135 18.409 22.4422C16.0198 22.7196 14.2942 21.9986 14.2942 21.9986C16.7152 22.4632 18.723 21.9348 20.2096 21.2022C21.4015 20.2167 22.4104 18.9629 23.0873 17.3078ZM2.76765 30.7151C2.15475 28.4606 2.54074 26.8114 2.87273 25.3994L2.89869 25.289C3.40566 23.1248 2.77309 20.793 2.52776 20.039C2.46319 19.8373 2.37901 19.6434 2.27658 19.4605C2.27658 19.4605 4.01186 17.2489 5.85808 17.6183C7.56572 17.9596 8.37872 18.9584 9.05651 20.2838C5.59558 22.6508 2.65754 26.2508 2.76765 30.7151Z" fill="#151D33"/>
<path d="M17.0363 2.86424L15.9118 2.00077V9.94175L17.0363 9.07873V2.86424Z" fill="#151D33"/>
</svg>
