<svg width="64" height="20" viewBox="0 0 64 20" fill="none" xmlns="http://www.w3.org/2000/svg">
<g clip-path="url(#clip0)">
<path d="M49.203 17.7039C48.376 17.6539 48.1983 17.6102 48.1983 17.3772C48.1983 17.1441 48.3699 17.0809 49.0934 17.0809C49.8563 17.0809 50.1705 17.1637 50.1705 17.4948H50.9044C50.9044 16.7498 50.2512 16.4667 49.1741 16.4667C48.0969 16.4667 47.4643 16.6845 47.4643 17.3379C47.4643 17.9915 47.9584 18.2093 49.203 18.2791C50.1292 18.327 50.2925 18.3684 50.2925 18.6188C50.2925 18.8694 50.0506 18.9522 49.2774 18.9522C48.347 18.9522 48.1031 18.8062 48.1031 18.4882H47.3672C47.3672 19.3595 48.066 19.5773 49.2278 19.5773C50.2842 19.5773 51.0078 19.4118 51.0078 18.608C51.0181 17.8347 50.3194 17.7693 49.203 17.7039Z" fill="#151D33"/>
<path d="M53.0387 16.4667C51.7818 16.4667 51.2422 17.0113 51.2422 18.0111C51.2422 19.011 51.7818 19.5644 53.0387 19.5644C54.2957 19.5644 54.8353 19.0088 54.8353 18.0111C54.8353 17.0134 54.2936 16.4667 53.0387 16.4667ZM53.0387 18.913C52.2758 18.913 51.9782 18.6298 51.9782 18.0111C51.9782 17.3924 52.2717 17.1157 53.0387 17.1157C53.8057 17.1157 54.1013 17.399 54.1013 18.0111C54.1013 18.6232 53.8037 18.913 53.0387 18.913Z" fill="#151D33"/>
<path d="M55.8744 16.5081H55.1426V19.5208H57.2141V18.8716H55.8744V16.5081Z" fill="#151D33"/>
<path d="M58.7907 18.9478L57.6432 16.5081H56.8184L58.2882 19.5208H59.293L60.7629 16.5081H59.938L58.7907 18.9478Z" fill="#151D33"/>
<path d="M64.001 17.1245V16.5081H60.9805V19.5208H64.001V18.9043H61.7144V18.2943H64.001V17.7345H61.7144V17.1245H64.001Z" fill="#151D33"/>
<path d="M13.9589 2.46597C10.0744 2.46597 6.92987 3.81223 4.64335 5.70092V2.75352H0V19.6058H4.64335V10.3736C6.09051 8.60038 9.45001 6.7008 12.5738 6.7008C16.4026 6.7008 17.5355 8.56117 17.5355 12.1468V19.6058H22.2057L22.2595 10.2756C22.214 4.06928 18.222 2.46597 13.9589 2.46597Z" fill="#151D33"/>
<path d="M53.5775 11.6632H57.7909V7.85317H62.7981V3.80786H57.7909V0H53.5775V3.80786H48.5703V7.85317H53.5775V11.6632Z" fill="#151D33"/>
<path d="M44.2055 7.50681C44.2055 3.73163 40.9473 2.46597 35.262 2.46597C29.645 2.46597 25.8555 3.73163 25.8555 9.16241H30.015C30.015 6.581 31.5407 6.14313 35.4936 6.14313C39.0743 6.14313 40.0418 6.57881 40.0418 8.06666C40.0418 9.77236 39.2769 9.91832 33.7756 9.91832V12.5477C39.3926 12.5477 40.0418 12.6958 40.0418 14.3993C40.0418 16.0309 38.8014 16.3229 35.4936 16.3229C31.9335 16.3229 30.015 16.0309 30.015 13.3036H25.8555C25.8555 18.7344 29.645 20 35.262 20C40.9473 20 44.2055 18.7344 44.2055 14.9592C44.2055 13.1816 43.2587 12.0117 41.7102 11.2341C43.2587 10.4564 44.2055 9.2844 44.2055 7.50681Z" fill="#151D33"/>
</g>
<defs>
<clipPath id="clip0">
<rect width="64" height="20" fill="white"/>
</clipPath>
</defs>
</svg>
