<svg width="87" height="24" viewBox="0 0 87 24" fill="none" xmlns="http://www.w3.org/2000/svg">
<path d="M68.6991 7.32205L71.902 4.93604H61.1792V19.2288H71.902V16.8427H64.2428V13.1935H70.7879V10.8075H64.2428V7.32205H68.6991Z" fill="#21A038"/>
<path d="M53.0789 10.5034H49.3654V7.32205H55.307L58.5099 4.93604H46.3018V19.2288H52.6844C56.2586 19.2288 58.3243 17.5913 58.3243 14.7374C58.3243 12.0005 56.4675 10.5034 53.0789 10.5034ZM52.5683 16.8427H49.3654V12.8894H52.5683C54.5179 12.8894 55.4231 13.5444 55.4231 14.8778C55.4231 16.2111 54.4483 16.8427 52.5683 16.8427Z" fill="#21A038"/>
<path d="M80.5858 4.93604H74.7603V19.2288H77.8239V15.1819H80.609C84.3226 15.1819 86.6435 13.2169 86.6435 10.059C86.6435 6.90099 84.3226 4.93604 80.5858 4.93604ZM80.5162 12.7959H77.8007V7.32205H80.5162C82.489 7.32205 83.5566 8.30453 83.5566 10.059C83.5566 11.8134 82.489 12.7959 80.5162 12.7959Z" fill="#21A038"/>
<path d="M41.0569 16.1409C40.2446 16.5853 39.3394 16.8192 38.4111 16.8192C35.6491 16.8192 33.6531 14.8309 33.6531 12.094C33.6531 9.35707 35.6491 7.36872 38.4111 7.36872C39.4091 7.34533 40.3839 7.67282 41.1962 8.25763L43.4011 6.62017L43.2618 6.47981C41.9853 5.33359 40.2678 4.74878 38.3182 4.74878C36.2062 4.74878 34.2798 5.47394 32.8872 6.78391C31.4946 8.14067 30.7055 10.0354 30.7519 12.0004C30.7287 13.9888 31.4946 15.9069 32.8872 17.3105C34.3494 18.6906 36.299 19.4626 38.295 19.4158C40.4999 19.4158 42.4263 18.6438 43.726 17.2403L41.7532 15.7666L41.0569 16.1409Z" fill="#21A038"/>
<path d="M21.1685 4.84229C21.7256 5.56745 22.1897 6.36279 22.5843 7.20491L11.8615 15.1817L7.35889 12.3278V8.91255L11.8383 11.743L21.1685 4.84229Z" fill="#21A038"/>
<path d="M2.78582 12.0943C2.78582 11.9305 2.78582 11.7902 2.80903 11.6264L0.093522 11.4861C0.093522 11.6732 0.0703125 11.8838 0.0703125 12.0709C0.0703125 15.3458 1.39325 18.3166 3.52853 20.4687L5.45491 18.5272C3.80704 16.8897 2.78582 14.6207 2.78582 12.0943Z" fill="url(#paint0_linear)"/>
<path d="M11.8349 2.97128C11.9973 2.97128 12.1366 2.97128 12.2991 2.99467L12.4383 0.257767C12.2526 0.257767 12.0438 0.234375 11.8581 0.234375C8.60875 0.234375 5.66115 1.56774 3.52588 3.71983L5.45227 5.6614C7.07693 4.00054 9.35146 2.97128 11.8349 2.97128Z" fill="url(#paint1_linear)"/>
<path d="M11.8378 21.2172C11.6754 21.2172 11.5361 21.2172 11.3736 21.1938L11.2344 23.9307C11.4201 23.9307 11.6289 23.9541 11.8146 23.9541C15.0639 23.9541 18.0115 22.6208 20.1468 20.4687L18.2204 18.5271C16.5958 20.2113 14.3444 21.2172 11.8378 21.2172Z" fill="url(#paint2_linear)"/>
<path d="M16.942 4.56167L19.2398 2.85403C17.2205 1.21656 14.6443 0.210693 11.8359 0.210693V2.9476C13.7391 2.97099 15.503 3.5558 16.942 4.56167Z" fill="url(#paint3_linear)"/>
<path d="M23.6275 12.0943C23.6275 11.3691 23.5579 10.6673 23.4418 9.96558L20.912 11.8604C20.912 11.9305 20.912 12.0241 20.912 12.0943C20.912 14.7844 19.7515 17.1938 17.918 18.8547L19.7515 20.8898C22.1189 18.7377 23.6275 15.5797 23.6275 12.0943Z" fill="#21A038"/>
<path d="M11.8381 21.2168C9.169 21.2168 6.77843 20.0472 5.13055 18.1992L3.11133 20.0472C5.26981 22.4566 8.37988 23.9537 11.8381 23.9537V21.2168Z" fill="url(#paint4_linear)"/>
<path d="M5.77985 5.33372L3.9463 3.29858C1.55572 5.47407 0.0703125 8.60864 0.0703125 12.0941H2.78582C2.78582 9.42738 3.9463 6.99457 5.77985 5.33372Z" fill="url(#paint5_linear)"/>
<defs>
<linearGradient id="paint0_linear" x1="3.24763" y1="20.1358" x2="0.429047" y2="12.078" gradientUnits="userSpaceOnUse">
<stop offset="0.1444" stop-color="#F2E913"/>
<stop offset="0.3037" stop-color="#E7E518"/>
<stop offset="0.5823" stop-color="#CADB26"/>
<stop offset="0.891" stop-color="#A3CD39"/>
</linearGradient>
<linearGradient id="paint1_linear" x1="4.29994" y1="3.40252" x2="11.359" y2="0.741999" gradientUnits="userSpaceOnUse">
<stop offset="0.0592" stop-color="#0FA8E0"/>
<stop offset="0.5385" stop-color="#0099F9"/>
<stop offset="0.9234" stop-color="#0291EB"/>
</linearGradient>
<linearGradient id="paint2_linear" x1="11.0749" y1="21.6195" x2="19.476" y2="19.7416" gradientUnits="userSpaceOnUse">
<stop offset="0.1226" stop-color="#A3CD39"/>
<stop offset="0.2846" stop-color="#86C339"/>
<stop offset="0.8693" stop-color="#21A038"/>
</linearGradient>
<linearGradient id="paint3_linear" x1="11.278" y1="1.96182" x2="18.2695" y2="4.0953" gradientUnits="userSpaceOnUse">
<stop offset="0.0566" stop-color="#0291EB"/>
<stop offset="0.79" stop-color="#0C8ACB"/>
</linearGradient>
<linearGradient id="paint4_linear" x1="3.80179" y1="20.4918" x2="11.3143" y2="23.2678" gradientUnits="userSpaceOnUse">
<stop offset="0.1324" stop-color="#F2E913"/>
<stop offset="0.2977" stop-color="#EBE716"/>
<stop offset="0.5306" stop-color="#D9E01F"/>
<stop offset="0.8023" stop-color="#BBD62D"/>
<stop offset="0.9829" stop-color="#A3CD39"/>
</linearGradient>
<linearGradient id="paint5_linear" x1="2.13656" y1="12.4247" x2="5.18318" y2="4.58645" gradientUnits="userSpaceOnUse">
<stop offset="0.0698" stop-color="#A3CD39"/>
<stop offset="0.2599" stop-color="#81C55F"/>
<stop offset="0.9216" stop-color="#0FA8E0"/>
</linearGradient>
</defs>
</svg>
